<?xml version="1.0" standalone="no"?>
<!DOCTYPE svg PUBLIC "-//W3C//DTD SVG 1.1//EN" "http://www.w3.org/Graphics/SVG/1.1/DTD/svg11.dtd" >
<svg xmlns="http://www.w3.org/2000/svg">
<metadata></metadata>
<defs>
<font id="omneshairlineitalic" horiz-adv-x="1142" >
<font-face units-per-em="2048" ascent="1638" descent="-410" />
<missing-glyph horiz-adv-x="389" />
<glyph unicode="&#xfb01;" horiz-adv-x="884" d="M121 944q0 4 4 8q2 2 12 2h199l24 117q11 50 21 86.5t31 82.5t47.5 75.5t69.5 50t96 20.5q94 0 147 -53q16 -16 16 -28q0 -6 -3.5 -8.5t-6.5 -0.5q-37 76 -155 76q-51 0 -91.5 -21t-64.5 -49t-44 -75t-28 -78t-18 -78l-25 -117h260q11 0 11 -4q0 -3 -5 -8q-2 -2 -12 -2 h-258l-198 -932q-2 -10 -9 -10h-2q-9 0 -6 10l199 932h-201q-10 0 -10 4zM638 78q-4 33 5 86l166 782q3 10 8 10h2q9 0 6 -10l-166 -782q-8 -52 -4 -83.5t23 -47.5t37 -21t39 -4q1 0 1.5 -3.5t-2.5 -7t-10 -3.5q-22 0 -41.5 6.5t-39.5 25.5t-24 52zM868 1274q0 13 6.5 21 t14.5 8q22 0 22 -17q0 -13 -6 -21t-14 -8q-23 0 -23 17z" />
<glyph unicode="&#xfb02;" horiz-adv-x="884" d="M121 944q0 4 4 8q2 2 12 2h199l24 117q11 50 21 86.5t31 82.5t47.5 75.5t69.5 50t96 20.5q94 0 147 -53q16 -16 16 -28q0 -6 -3.5 -8.5t-6.5 -0.5q-37 76 -155 76q-51 0 -91.5 -21t-64.5 -49t-44 -75t-28 -78t-18 -78l-25 -117h260q11 0 11 -4q0 -3 -5 -8q-2 -2 -12 -2 h-258l-198 -932q-2 -10 -9 -10h-2q-9 0 -6 10l199 932h-201q-10 0 -10 4zM638 78q-4 33 5 86l256 1202q3 10 8 10h2q9 0 6 -10l-256 -1202q-8 -52 -4 -83.5t23 -47.5t37 -21t39 -4q1 0 1.5 -3.5t-2.5 -7t-10 -3.5q-22 0 -41.5 6.5t-39.5 25.5t-24 52z" />
<glyph horiz-adv-x="2048" />
<glyph horiz-adv-x="2048" />
<glyph unicode="&#xd;" horiz-adv-x="2048" />
<glyph unicode=" "  horiz-adv-x="389" />
<glyph unicode="&#x09;" horiz-adv-x="389" />
<glyph unicode="&#xa0;" horiz-adv-x="389" />
<glyph unicode="!" horiz-adv-x="405" d="M80 16q0 17 10 27q6 6 16 6q25 0 25 -20q0 -17 -10 -27q-6 -6 -17 -6q-24 0 -24 20zM166 338l207 979q3 10 10 10q9 0 6 -10l-209 -979q-2 -10 -8 -10q-9 0 -6 10z" />
<glyph unicode="&#x22;" horiz-adv-x="557" d="M262 940l76 375q4 12 12 12q11 0 8 -12l-82 -375q-3 -12 -10 -12t-4 12zM477 940l76 375q4 12 12 12q11 0 8 -12l-81 -375q-3 -12 -11 -12q-7 0 -4 12z" />
<glyph unicode="#" horiz-adv-x="1277" d="M55 426q0 4 4 8q2 2 13 2h276l139 453h-270q-10 0 -10 4t4 8q2 2 12 2h269l129 422q3 2 6.5 2t5.5 -4.5t0 -11.5l-125 -408h410l129 422q3 2 6.5 2t5.5 -4.5t0 -11.5l-125 -408h278q11 0 11 -4t-4 -8q-2 -2 -13 -2h-276l-139 -453h270q10 0 10 -4t-4 -8q-2 -2 -12 -2 h-269l-129 -422q-3 -2 -6.5 -2t-5.5 4.5t0 11.5l125 408h-410l-129 -422q-3 -2 -6.5 -2t-5.5 4.5t0 11.5l125 408h-278q-11 0 -11 4zM365 436h409l139 453h-409z" />
<glyph unicode="$" horiz-adv-x="1069" d="M51 256q0 12 10 12q16 -91 111 -168.5t268 -93.5l142 662q-64 24 -109 44t-92.5 50t-76.5 62t-47.5 77t-18.5 98q0 144 115 241t302 97q28 0 68 -4l35 164q2 10 8 10h2q7 0 4 -10l-35 -166q161 -20 262 -121q62 -62 62 -106q0 -12 -10 -12q-11 46 -47.5 91t-108 83.5 t-162.5 50.5l-135 -637q65 -24 111.5 -45.5t94 -52t76.5 -63.5t47.5 -79t18.5 -100q0 -158 -113 -255t-315 -97q-44 0 -67 2l-35 -168q-2 -10 -8 -10h-2q-8 0 -5 10l37 170q-200 18 -313 131q-34 34 -54 72t-20 61zM254 999q0 -63 24 -111.5t74.5 -86t101.5 -62.5t132 -55 l133 635q-40 4 -66 4q-180 0 -289.5 -92.5t-109.5 -231.5zM455 4q10 0 31.5 -1t33.5 -1q191 0 300.5 93.5t109.5 244.5q0 51 -17.5 94t-46 75t-74 61t-91 50t-107.5 44z" />
<glyph unicode="%" horiz-adv-x="1335" d="M51 4q0 7 12 19l1293 1304q6 0 6 -6t-12 -18l-1293 -1305q-6 0 -6 6zM229 1024q0 128 85.5 220.5t211.5 92.5q95 0 164.5 -65.5t69.5 -169.5q0 -128 -85.5 -221t-211.5 -93q-94 0 -164 66t-70 170zM246 1024q0 -98 65.5 -159.5t153.5 -61.5q117 0 197.5 88.5t80.5 210.5 q0 98 -65.5 159.5t-153.5 61.5q-117 0 -197.5 -88.5t-80.5 -210.5zM653 223q0 128 85.5 221t211.5 93q94 0 164 -66t70 -170q0 -128 -85.5 -220.5t-211.5 -92.5q-95 0 -164.5 65.5t-69.5 169.5zM670 223q0 -98 65.5 -159.5t153.5 -61.5q117 0 197.5 88.5t80.5 210.5 q0 98 -65.5 159.5t-153.5 61.5q-117 0 -197.5 -88.5t-80.5 -210.5z" />
<glyph unicode="&#x26;" horiz-adv-x="1267" d="M41 330q0 156 120.5 274t360.5 156q-96 132 -96 252q0 129 86.5 227t218.5 98q124 0 192 -69.5t68 -173.5q0 -81 -31.5 -141.5t-93.5 -100t-138 -63t-179 -39.5l379 -519q119 125 176 254.5t55 216.5q1 1 4 0.5t7 -3.5t4 -7q0 -89 -58 -218t-178 -255l70 -98 q57 -78 99 -97t85 -8q2 0 3 -5.5t-7 -11t-27 -5.5q-41 0 -78 23.5t-88 93.5l-69 96q-97 -98 -231.5 -158.5t-264.5 -60.5q-176 0 -282.5 97t-106.5 245zM57 330q0 -141 102.5 -234.5t272.5 -93.5q128 0 257.5 60.5t225.5 156.5l-383 526q-125 -19 -219.5 -61t-148.5 -98.5 t-80.5 -120.5t-26.5 -135zM442 1012q0 -113 97 -250q105 16 180.5 39.5t135.5 61.5t90 95.5t30 135.5q0 97 -64.5 163t-181.5 66q-83 0 -150 -45t-102 -115.5t-35 -150.5z" />
<glyph unicode="'" horiz-adv-x="342" d="M262 940l76 375q4 12 12 12q11 0 8 -12l-82 -375q-3 -12 -10 -12t-4 12z" />
<glyph unicode="(" horiz-adv-x="718" d="M137 246q0 266 98 508.5t250 394.5q95 95 196.5 141.5t160.5 46.5q6 0 6.5 -6.5t-2.5 -7.5q-178 -14 -350 -186q-147 -147 -244.5 -389.5t-97.5 -501.5q0 -167 45.5 -302t126.5 -216q46 -46 80 -67.5t81 -35.5q1 -1 1 -4t-3 -5.5t-8 -2.5q-10 0 -31.5 8.5t-59 33 t-73.5 60.5q-84 84 -130 223t-46 308z" />
<glyph unicode=")" horiz-adv-x="718" d="M-131.5 -380.5q-0.5 6.5 2.5 7.5q177 14 350 187q147 147 244.5 389.5t97.5 501.5q0 167 -45.5 302t-126.5 216q-46 46 -80 67t-82 35q-1 1 -1 4t3.5 5.5t8.5 2.5q18 0 65 -25.5t98 -76.5q85 -85 131 -223t46 -307q0 -266 -98.5 -509t-250.5 -395q-95 -95 -196 -141.5 t-160 -46.5q-6 0 -6.5 6.5z" />
<glyph unicode="*" horiz-adv-x="772" d="M272 1157q0 7 11 4l239 -76l2 254q0 11 6 11q7 0 7 -11l2 -254l239 76q10 3 10 -4q0 -4 -6 -6l-239 -80l147 -205q6 -8 2 -12q-6 -6 -12 6l-150 201l-149 -201q-6 -12 -12 -6q-4 4 2 12l147 205l-239 80q-7 2 -7 6z" />
<glyph unicode="+" horiz-adv-x="974" d="M84 535q0 4 4 8q2 2 12 2h394l84 395q2 10 8 10h2q8 0 6 -10l-84 -395h395q10 0 10 -4q0 -5 -4 -9q-2 -2 -12 -2h-393l-90 -424q-2 -10 -8 -10h-2q-10 0 -7 10l90 424h-395q-10 0 -10 5z" />
<glyph unicode="," horiz-adv-x="307" d="M-115 -248l31.5 52.5t61 100.5t68.5 113.5t26 44.5q1 1 4.5 0.5t6.5 -3t3 -7.5q0 -7 -10 -22l-180 -287q-2 -3 -5.5 -2t-5.5 4t0 6z" />
<glyph unicode="-" horiz-adv-x="647" d="M84 535q0 4 4 8q2 2 12 2h478q10 0 10 -4q0 -5 -4 -9q-2 -2 -13 -2h-477q-10 0 -10 5z" />
<glyph unicode="." horiz-adv-x="307" d="M31 16q0 17 10 27q6 6 16 6q25 0 25 -20q0 -17 -10 -27q-6 -6 -17 -6q-24 0 -24 20z" />
<glyph unicode="/" horiz-adv-x="620" d="M-141 -371q0 5 4 13l872 1683q2 2 7.5 0t5.5 -6q0 -2 -5 -12l-872 -1684q-2 -2 -7 0t-5 6z" />
<glyph unicode="0" horiz-adv-x="1239" d="M147 461q0 61 7.5 108t40.5 199q61 280 199 424.5t339 144.5q109 0 193 -36t136.5 -101t79.5 -150t27 -186q0 -63 -7.5 -111.5t-39.5 -195.5q-61 -280 -199 -424.5t-339 -144.5q-109 0 -193.5 36t-137 101t-79.5 150t-27 186zM164 461q0 -98 26 -180t77 -145t132.5 -98.5 t186.5 -35.5q193 0 327.5 143t192.5 412q31 141 39 194t8 113q0 98 -26 180t-77 145t-132.5 98.5t-186.5 35.5q-193 0 -327.5 -143t-192.5 -412q-31 -141 -39 -194t-8 -113z" />
<glyph unicode="1" horiz-adv-x="636" d="M197 1204q0 8 8 8q20 -53 125 -53q73 0 137 49t76 119h6q11 0 6 -20l-276 -1299q-3 -10 -9 -10h-2q-8 0 -6 10l266 1247q-29 -47 -84 -78.5t-116 -31.5q-82 0 -119 37q-12 12 -12 22z" />
<glyph unicode="2" horiz-adv-x="1003" d="M14 16q0 224 148 375q127 127 383 219q250 91 347 175.5t97 228.5q0 136 -99.5 222.5t-273.5 86.5q-146 0 -247.5 -77t-141.5 -189q-12 -4 -12 6q0 6 9.5 27.5t32 56.5t50.5 63q127 127 309 127q181 0 285.5 -90t104.5 -233q0 -77 -23 -134t-80 -106t-138 -88.5 t-212 -87.5q-256 -96 -379 -219q-143 -143 -143 -365h809q10 0 10 -4q0 -10 -4 -10h-815q-17 0 -17 16z" />
<glyph unicode="3" horiz-adv-x="997" d="M-10 305q0 5 5 8t9 0q2 -48 29.5 -100.5t78.5 -100.5t136 -79t188 -31q188 0 309 110t121 273q0 136 -87 220.5t-253 84.5h-172q-10 0 -10 4t4 8q3 3 12 3h177q198 0 309.5 90t111.5 241q0 120 -98.5 203.5t-257.5 83.5q-121 0 -232.5 -55.5t-154.5 -128.5q-10 -3 -10 8 q0 10 37 47q63 63 158.5 103t203.5 40q165 0 268 -87.5t103 -213.5q0 -147 -97.5 -234.5t-267.5 -105.5q128 -20 200.5 -101.5t72.5 -207.5q0 -170 -126.5 -284.5t-320.5 -114.5q-108 0 -200 35.5t-152 95.5q-47 47 -70.5 100.5t-23.5 85.5z" />
<glyph unicode="4" horiz-adv-x="1093" d="M53 446q0 10 15 25l860 854q12 12 20 12q16 0 13 -14l-185 -872h248q10 0 10 -5q0 -4 -4 -8q-2 -2 -12 -2h-246l-90 -428q-2 -10 -8 -10h-2q-8 0 -6 10l90 428h-699q-4 0 -4 10zM70 451h690l186 874z" />
<glyph unicode="5" horiz-adv-x="1030" d="M43 268q0 5 4 9.5t8 1.5q24 -113 143.5 -195t282.5 -82q108 0 195.5 40.5t141 106.5t82 145t28.5 161q0 150 -110.5 239.5t-307.5 89.5q-162 0 -297 -73q-19 0 -16 20l120 569q3 14 9.5 19.5t19.5 5.5h727q2 -2 2 -6q0 -8 -16 -8h-723l-123 -584q136 72 299 72 q203 0 317.5 -94t114.5 -250q0 -84 -29.5 -165.5t-85.5 -149.5t-147 -110t-203 -42q-103 0 -195 35t-155 98q-45 45 -65.5 86t-20.5 61z" />
<glyph unicode="6" horiz-adv-x="1146" d="M141 436q0 54 12.5 142t39 203.5t80.5 230t126 186.5q139 139 334 139q187 0 295 -108q32 -32 50 -71.5t18 -55.5q0 -14 -15 -10q-14 89 -105.5 160t-244.5 71q-456 0 -563 -764q56 90 177 152.5t267 62.5q188 0 299 -93.5t111 -242.5q0 -192 -134 -321t-323 -129 q-89 0 -164.5 27t-134.5 80t-92 140.5t-33 200.5zM158 436q0 -214 113.5 -324t293.5 -110q184 0 312.5 124t128.5 312q0 142 -106.5 232t-289.5 90q-147 0 -274 -70.5t-172 -163.5q-6 -46 -6 -90z" />
<glyph unicode="7" horiz-adv-x="940" d="M121 1q-2 7 4 15l919 1295h-839q-10 0 -10 4q0 10 4 10h854q6 0 6 -12q0 -7 -12 -23l-916 -1292q-6 -4 -10 3z" />
<glyph unicode="8" horiz-adv-x="1144" d="M61 311q0 163 133 275t347 119q-139 21 -211 94t-72 174q0 156 129 260t332 104q180 0 286.5 -83t106.5 -216q0 -141 -111 -237t-307 -105q167 -23 249.5 -113t82.5 -200q0 -179 -144.5 -287t-373.5 -108q-208 0 -327.5 89.5t-119.5 233.5zM78 311q0 -140 113.5 -224.5 t316.5 -84.5q221 0 361.5 104t140.5 277q0 133 -110 221t-318 88q-229 0 -366.5 -107.5t-137.5 -273.5zM274 973q0 -121 101 -193.5t278 -72.5q198 0 320.5 91t122.5 240q0 128 -101 206.5t-278 78.5q-199 0 -321 -98.5t-122 -251.5z" />
<glyph unicode="9" horiz-adv-x="1146" d="M98 233q0 6 4.5 10t10.5 1q6 -42 32 -83.5t70 -77t112.5 -57.5t149.5 -22q238 0 381.5 195.5t196.5 548.5q-55 -91 -178 -154.5t-269 -63.5q-190 0 -298.5 93.5t-108.5 253.5q0 133 63 239t167 163.5t228 57.5q89 0 164.5 -27t134.5 -80t92 -140.5t33 -200.5 q0 -54 -12.5 -140.5t-39.5 -200t-82 -228t-128 -187.5q-145 -145 -348 -145q-185 0 -303 114q-33 32 -52.5 73.5t-19.5 57.5zM217 877q0 -153 104 -242.5t289 -89.5q147 0 274.5 70t172.5 163q10 77 10 111q0 109 -31.5 193.5t-87.5 136t-129 78t-160 26.5 q-185 0 -313.5 -125t-128.5 -321z" />
<glyph unicode=":" horiz-adv-x="327" d="M41 16q0 17 10 27q6 6 17 6q24 0 24 -20q0 -17 -10 -27q-6 -6 -16 -6q-25 0 -25 20zM209 805q0 16 10 26q7 7 17 7q24 0 24 -21q0 -16 -10 -26q-7 -7 -17 -7q-24 0 -24 21z" />
<glyph unicode=";" horiz-adv-x="327" d="M-104.5 -254q-1.5 3 0.5 6l31.5 52.5t60.5 100.5t68 113.5t26 44.5q1 1 4.5 0.5t6.5 -3t3 -7.5q0 -7 -10 -22l-180 -287q-2 -3 -5.5 -2t-5 4zM209 805q0 16 10 26q7 7 17 7q24 0 24 -21q0 -16 -10 -26q-7 -7 -17 -7q-24 0 -24 21z" />
<glyph unicode="&#x3c;" horiz-adv-x="907" d="M96 535q0 9 15 18l755 397q6 0 6 -8q0 -6 -16 -14l-745 -393l579 -394q8 -5 8 -10q0 -8 -8 -8l-586 397q-8 5 -8 15z" />
<glyph unicode="=" horiz-adv-x="974" d="M61 309q0 3 5 8q2 2 12 2h756q10 0 10 -4t-4 -8q-2 -2 -13 -2h-755q-11 0 -11 4zM152 735q0 4 4 8q2 2 12 2h756q10 0 10 -4t-4 -8q-2 -2 -12 -2h-756q-10 0 -10 4z" />
<glyph unicode="&#x3e;" horiz-adv-x="907" d="M59 131q0 5 17 14l745 394l-579 393q-9 6 -9 10q0 8 9 8l585 -397q9 -6 9 -14q0 -10 -15 -19l-755 -397q-7 0 -7 8z" />
<glyph unicode="?" horiz-adv-x="913" d="M199 1063q0 6 9.5 28t33 59t53.5 67q55 55 137 87.5t178 32.5q161 0 259 -84t98 -225q0 -137 -74.5 -227t-220.5 -144q-123 -45 -189.5 -83.5t-88 -70.5t-21.5 -75q0 -38 28 -64.5t76 -25.5q1 0 2 -3.5t-2 -7t-10 -3.5q-50 0 -80.5 31.5t-30.5 72.5q0 47 21.5 81t91.5 75 t199 88q139 51 210.5 137.5t71.5 218.5q0 136 -93.5 215.5t-248.5 79.5q-147 0 -254.5 -77t-142.5 -195q-12 0 -12 12zM283 16q0 17 10 27q6 6 16 6q25 0 25 -20q0 -17 -10 -27q-6 -6 -17 -6q-24 0 -24 20z" />
<glyph unicode="@" horiz-adv-x="1454" d="M121 563q0 147 53 286.5t146.5 248t232 174t297.5 65.5q262 0 421 -145.5t159 -388.5q0 -99 -36.5 -199t-108.5 -171t-159 -71q-70 0 -112.5 44t-44.5 118q-39 -79 -106.5 -122.5t-153.5 -43.5q-103 0 -174.5 71.5t-71.5 182.5q0 134 86.5 234t214.5 100 q102 0 167.5 -56.5t78.5 -137.5l32 159q6 25 15 25q6 0 6 -4l-72 -338q-22 -102 17.5 -159.5t119.5 -57.5q60 0 115 41.5t91 104.5t57.5 137t21.5 141q0 238 -154 380t-411 142q-154 0 -289 -64.5t-226 -171t-143.5 -243.5t-52.5 -281q0 -119 38.5 -220t112 -177.5 t189.5 -120t262 -43.5q121 0 231.5 37t176.5 90q6 6 14 6t8 -8q-71 -58 -187.5 -98.5t-244.5 -40.5q-148 0 -266.5 45t-194 123.5t-115.5 182t-40 224.5zM479 612q0 -105 66.5 -172t165.5 -67q103 0 174 64.5t90 150.5l26 117q0 95 -64 161t-175 66q-119 0 -201 -95.5 t-82 -224.5z" />
<glyph unicode="A" horiz-adv-x="1167" d="M-71 4q0 5 5 14l793 1299q7 10 14 10q12 0 15 -12l284 -1311q-2 -4 -6 -6h-2l-4 2q-4 4 -6 12l-111 510h-651l-319 -522q-4 -3 -7 -3q-5 1 -5 7zM268 537h641l-168 774z" />
<glyph unicode="B" horiz-adv-x="1169" d="M68 23l272 1288q3 14 22 14h349q395 0 395 -276q0 -150 -90 -246.5t-283 -110.5q324 -34 324 -289q0 -403 -514 -403h-459q-17 0 -17 14q0 4 1 9zM82 14h463q495 0 495 389q0 143 -106.5 212t-296.5 69h-414zM227 698h412q99 0 177 19t129 51t84 77.5t47 95.5t14 108 q0 262 -381 262h-353z" />
<glyph unicode="C" horiz-adv-x="1308" d="M131 537q0 160 53 306.5t145 255t224 173.5t281 65q229 0 366 -137q47 -47 72.5 -107t25.5 -98q0 -10 -4.5 -14t-9.5 -2q-5 67 -36.5 128t-86.5 109.5t-140.5 77.5t-189.5 29q-193 0 -351.5 -109t-245.5 -288.5t-87 -388.5q0 -245 148 -390t395 -145q84 0 158 21 t123.5 52t90.5 72.5t63.5 76.5t37.5 71q3 2 7 0t4 -6q0 -7 -9 -26.5t-36 -58t-66 -77.5q-139 -139 -375 -139q-252 0 -404.5 149t-152.5 400z" />
<glyph unicode="D" horiz-adv-x="1271" d="M72 23l272 1288q3 14 23 14h206q308 0 478 -151t170 -414q0 -164 -53.5 -303t-153 -240.5t-251.5 -159t-339 -57.5h-336q-17 0 -17 14q0 4 1 9zM86 14h340q244 0 422 98t267 265t89 383q-2 258 -167 404.5t-466 146.5h-211z" />
<glyph unicode="E" horiz-adv-x="1077" d="M72 23l272 1288q3 14 23 14h768q10 0 10 -4t-4 -8q-2 -2 -13 -2h-768l-131 -623h553q11 0 11 -4q0 -3 -5 -8q-2 -2 -12 -2h-551l-139 -660h823q11 0 11 -4q0 -3 -5 -8q-2 -2 -12 -2h-815q-17 0 -17 14q0 4 1 9z" />
<glyph unicode="F" horiz-adv-x="1019" d="M68 8l276 1303q3 14 23 14h780q10 0 10 -4t-4 -8q-2 -2 -12 -2h-781l-141 -668h569q11 0 11 -4t-4 -8q-2 -2 -13 -2h-567l-131 -621q-2 -10 -8 -10h-2q-8 0 -6 10z" />
<glyph unicode="G" horiz-adv-x="1345" d="M135 565q0 148 51.5 287.5t140.5 247t220.5 172.5t281.5 65q230 0 365 -135q40 -40 63 -92.5t23 -83.5q0 -18 -12 -14q-5 59 -36 113.5t-84.5 99.5t-136.5 71.5t-184 26.5q-117 0 -223.5 -41.5t-187.5 -114t-141.5 -168t-91.5 -207.5t-31 -227q0 -178 71.5 -307 t191.5 -192.5t273 -63.5q104 0 198.5 37.5t164.5 107.5q45 45 76 90.5t52 104.5t32.5 104t29.5 132h-491q-11 0 -11 4t4 8q2 2 13 2h487q19 0 14 -21l-122 -569q0 -4 -7 -4q-10 0 -4 29l62 288q-68 -153 -197.5 -240t-302.5 -87q-117 0 -217 38.5t-174.5 110t-117 181.5 t-42.5 247z" />
<glyph unicode="H" horiz-adv-x="1318" d="M68 8l278 1309q2 10 8 10h2q8 0 6 -10l-137 -647h951l137 647q3 10 8 10h2q7 0 7 -6q0 -2 -1 -4l-278 -1309q-3 -10 -9 -10h-2q-8 0 -6 10l137 647h-950l-137 -647q-2 -10 -8 -10h-2q-8 0 -6 10z" />
<glyph unicode="I" horiz-adv-x="393" d="M88 8l279 1309q3 10 8 10h2q7 0 7 -6q0 -2 -1 -4l-279 -1309q-2 -10 -8 -10h-2q-8 0 -6 10z" />
<glyph unicode="J" horiz-adv-x="890" d="M-14 209q0 6 3.5 9t8.5 1q26 -95 114.5 -156t215.5 -61q298 0 379 383l198 932q3 10 8 10h5q5 0 5 -5q0 -2 -1 -5l-199 -936q-42 -198 -138.5 -295.5t-256.5 -97.5q-171 0 -271 100q-25 25 -42.5 54t-23 45.5t-5.5 21.5z" />
<glyph unicode="K" horiz-adv-x="974" d="M68 8l278 1309q2 10 8 10h2q8 0 6 -10l-135 -635l832 645q3 0 5 -3q2 -2 2 -5q0 -5 -7 -10l-813 -631l469 -578q53 -66 85 -80q20 -9 45 -9q15 0 32 3q0 -1 2 -5.5t-7 -9.5t-28 -5q-36 0 -64.5 18.5t-77.5 77.5l-475 588l-143 -670q-2 -10 -8 -10h-2q-8 0 -6 10z" />
<glyph unicode="L" horiz-adv-x="925" d="M72 23l274 1294q2 10 8 10h2q8 0 6 -10l-276 -1303h674q10 0 10 -4t-4 -8q-2 -2 -12 -2h-666q-17 0 -17 14q0 4 1 9z" />
<glyph unicode="M" horiz-adv-x="1474" d="M68 8l278 1307q3 12 12 12h2q9 0 15 -12l352 -873l727 877q8 8 16 8h3q5 0 9 -3.5t3 -8.5l-279 -1307q-2 -10 -8 -10h-2q-8 0 -6 10l276 1301l-725 -875q-8 -8 -16 -8q-10 0 -14 12l-351 871l-276 -1301q-2 -10 -8 -10h-2q-8 0 -6 10z" />
<glyph unicode="N" horiz-adv-x="1349" d="M68 8l278 1309q2 10 10 10h2q10 0 19 -18l690 -1291l276 1299q3 10 9 10h2q8 0 6 -10l-279 -1309q-3 -10 -10 -10h-2q-9 0 -18 18l-691 1291l-276 -1299q-2 -10 -8 -10h-2q-8 0 -6 10z" />
<glyph unicode="O" horiz-adv-x="1466" d="M133 553q0 158 57 303t153.5 250.5t230 168t278.5 62.5q252 0 406.5 -158t154.5 -407q0 -158 -57 -303t-153.5 -250.5t-230 -168t-278.5 -62.5q-252 0 -406.5 158t-154.5 407zM150 553q0 -243 149.5 -397t396.5 -154q142 0 271.5 61.5t223.5 165.5t150 246t56 297 q0 242 -150 396.5t-397 154.5q-142 0 -271.5 -61.5t-223.5 -165.5t-149.5 -246t-55.5 -297z" />
<glyph unicode="P" horiz-adv-x="1073" d="M68 8l276 1303q3 14 23 14h284q221 0 334 -88t113 -252q0 -206 -136 -324t-389 -118h-376l-113 -535q-2 -10 -8 -10h-2q-8 0 -6 10zM201 557h374q244 0 375 115t131 313q0 158 -108.5 242t-323.5 84h-289z" />
<glyph unicode="Q" horiz-adv-x="1466" d="M133 553q0 158 57 303t153.5 250.5t230 168t278.5 62.5q252 0 406.5 -158t154.5 -407q0 -189 -78 -354.5t-213 -274.5l33 -43q53 -66 85 -80q20 -9 45 -9q15 0 32 3q0 -1 2 -5.5t-7 -9.5t-28 -5q-36 0 -65 18t-76 78l-35 43q-184 -145 -414 -145q-252 0 -406.5 158 t-154.5 407zM150 553q0 -243 149.5 -397t396.5 -154q220 0 404 141l-303 385q-6 9 -6 13q0 6 6 6q7 0 12 -8l303 -383q132 106 208.5 268.5t76.5 347.5q0 242 -150 396.5t-397 154.5q-142 0 -271.5 -61.5t-223.5 -165.5t-149.5 -246t-55.5 -297z" />
<glyph unicode="R" horiz-adv-x="1103" d="M68 8l276 1303q3 14 23 14h292q215 0 325 -80t110 -231q0 -195 -128.5 -307.5t-379.5 -112.5h-203l401 -494q52 -66 84 -80q20 -9 46 -9q15 0 32 3q0 -1 2 -5.5t-7 -9.5t-28 -5q-35 0 -63.5 18.5t-77.5 77.5l-407 504h-156l-125 -586q-2 -10 -8 -10h-2q-8 0 -6 10z M211 608h377q127 0 223 31.5t153 87.5t85 128t28 159q0 144 -106.5 220.5t-313.5 76.5h-297z" />
<glyph unicode="S" horiz-adv-x="1069" d="M51 256q0 12 10 12q8 -46 37.5 -90.5t82.5 -85t141 -65.5t198 -25q191 0 300.5 93.5t109.5 244.5q0 52 -18.5 96t-47 75.5t-76 61.5t-93.5 50.5t-111 44.5q-64 24 -109 44t-93 50t-77 62t-48 77t-19 98q0 144 115 241t302 97q217 0 344 -127q62 -62 62 -106 q0 -12 -10 -12q-20 86 -125.5 158.5t-272.5 72.5q-180 0 -289.5 -92.5t-109.5 -231.5q0 -52 18.5 -95t46 -73t76.5 -59t91.5 -48t109.5 -44q82 -31 137.5 -58.5t108 -67.5t78.5 -93.5t26 -120.5q0 -158 -113 -255t-315 -97q-258 0 -393 135q-34 34 -54 72t-20 61z" />
<glyph unicode="T" horiz-adv-x="1093" d="M217 1315q0 4 4 8q2 2 12 2h990q10 0 10 -4t-4 -8q-2 -2 -12 -2h-486l-276 -1303q-3 -10 -9 -10h-2q-8 0 -6 10l277 1303h-488q-10 0 -10 4z" />
<glyph unicode="U" horiz-adv-x="1253" d="M149 293q-6 38 -6 81q0 78 19 173l164 770q2 10 8 10h2q8 0 6 -10l-164 -770q-20 -93 -20 -170q0 -153 78 -241q116 -134 372 -134q188 0 308.5 115.5t166.5 333.5l185 866q2 10 8 10h2q8 0 6 -10l-184 -866q-100 -463 -494 -463q-127 0 -221 32t-157 99.5t-79 173.5z " />
<glyph unicode="V" horiz-adv-x="1167" d="M205 1321q1 3 5 5q1 0 3 1l5 -3q4 -4 5 -11l281 -1299l799 1311q2 2 5 2q1 -1 2 -1q6 -1 6 -7q0 -4 -5 -12l-793 -1299q-7 -10 -14 -10q-12 0 -15 12z" />
<glyph unicode="W" horiz-adv-x="1662" d="M264 1323q3 4 8 4q0 -1 2 -1q6 -2 7 -11l71 -1301l578 1016q8 17 20 17q14 0 17 -21l184 -1012l586 1311q2 2 5 2q1 -1 2 -1q6 -1 6 -7q0 -4 -3 -12l-580 -1297q-6 -12 -16 -12q-13 0 -16 12l-187 1020l-579 -1020q-8 -12 -17 -12q-16 0 -16 16z" />
<glyph unicode="X" horiz-adv-x="1097" d="M-65 1q-1 1 -1 3q0 4 5 10l643 666l-332 645q3 5 7 5q5 0 11 -9l326 -633l614 639q6 1 8 -5v-3q0 -4 -4 -10l-610 -635l287 -557q38 -72 74 -93q24 -14 52 -14q15 0 32 4q0 -1 2 -5.5t-7 -9.5t-28 -5q-37 0 -69 22.5t-68 92.5l-287 557l-647 -670q-6 0 -8 5z" />
<glyph unicode="Y" horiz-adv-x="1028" d="M184 1321q4 7 8 7q6 0 13 -15l354 -695l619 707q3 2 6 2q5 0 5 -6q0 -5 -7 -14l-617 -703l-127 -596q-2 -10 -8 -10h-2q-8 0 -6 10l127 598z" />
<glyph unicode="Z" horiz-adv-x="1110" d="M-41 10q0 9 16 25l1203 1276h-902q-14 0 -14 6q0 8 6 8h922q6 0 6 -10q0 -9 -16 -25l-1203 -1276h934q15 0 15 -6q0 -8 -6 -8h-955q-6 0 -6 10z" />
<glyph unicode="[" horiz-adv-x="655" d="M18 -352l355 1663q3 14 22 14h346q11 0 11 -4t-4 -8q-2 -2 -13 -2h-346l-356 -1671h350q10 0 10 -5q0 -4 -4 -8q-2 -2 -12 -2h-342q-23 0 -17 23z" />
<glyph unicode="\" horiz-adv-x="620" d="M229 1313q0 14 9 14q6 0 6 -4l155 -1685q0 -15 -8 -15q-6 0 -6 4z" />
<glyph unicode="]" horiz-adv-x="655" d="M-96 -371q0 5 4 9q2 2 12 2h346l357 1671h-351q-10 0 -10 4t4 8q2 2 13 2h342q21 0 16 -22l-354 -1663q-3 -15 -23 -15h-346q-10 0 -10 4z" />
<glyph unicode="^" horiz-adv-x="1024" d="M418 948q0 5 127 139q117 125 123 125q8 0 69 -125q68 -137 68 -139q0 -6 -6 -6t-74 135q-19 36 -36 70.5t-23 46.5q-19 -20 -50 -53.5t-59 -63.5q-92 -98 -110 -116.5t-23 -18.5q-6 0 -6 6z" />
<glyph unicode="_" horiz-adv-x="862" d="M-88 -10q0 4 4 8q2 2 12 2h803q10 0 10 -4t-4 -8q-2 -2 -12 -2h-803q-10 0 -10 4z" />
<glyph unicode="`" horiz-adv-x="1024" d="M526 1311q0 6 6 6q8 0 80 -66q58 -53 90 -82.5t48.5 -45.5t20.5 -20t3 -5q-2 -2 -6.5 1t-22.5 16.5t-51 42t-92 79.5q-36 30 -53 46t-20 20t-3 8z" />
<glyph unicode="a" d="M102 412q0 145 64 272t180 205t256 78q91 0 168 -29.5t128 -78.5t81 -109.5t35 -126.5l65 311q5 22 15 22q6 0 6 -4l-168 -788q-7 -28 -7 -51q-1 -11 1 -19q4 -28 13 -45.5t25.5 -26.5t31 -12t30.5 -2q1 0 2 -3.5t-2 -7t-10 -3.5q-22 0 -41.5 7t-39.5 26q-21 19 -25 52 q-2 11 -1 24q0 26 6 61l21 92q-66 -129 -174 -198.5t-240 -69.5q-186 0 -303 116t-117 308zM119 412q0 -184 112 -297t293 -113q82 0 158 32t130.5 83.5t92.5 113t51 123.5l45 211v9q0 97 -43 180q-45 87 -139 142.5t-219 55.5q-133 0 -245 -76t-174 -199.5t-62 -264.5z" />
<glyph unicode="b" d="M49 2l291 1364q0 10 8 10h2q8 0 6 -10l-143 -668q59 120 168.5 194.5t247.5 74.5q186 0 303 -116t117 -308q0 -145 -64 -272t-180 -205t-256 -78q-91 0 -168.5 29.5t-128.5 78.5t-81.5 109.5t-35.5 126.5l-65 -312q-6 -22 -15 -22q-6 0 -6 4zM150 333q7 -50 24 -97.5 t53.5 -90t81.5 -74.5t108 -50.5t134 -18.5q100 0 190 45t153.5 119.5t100.5 173t37 203.5q0 184 -112 296.5t-293 112.5q-152 0 -262.5 -90t-161.5 -221l-47 -211q-8 -31 -8 -62q0 -17 2 -35z" />
<glyph unicode="c" horiz-adv-x="1017" d="M96 408q0 145 65.5 273t183 207t257.5 79q178 0 291 -113q38 -38 59 -91t21 -83q0 -15 -15 -12q-2 52 -25.5 101.5t-66 91t-111.5 66.5t-155 25q-136 0 -249.5 -77.5t-175.5 -202t-62 -264.5q0 -194 113.5 -300t291.5 -106q127 0 219.5 63.5t132.5 143.5q11 0 11 -8 q0 -10 -16 -35t-48 -57q-121 -121 -301 -121q-87 0 -162.5 27t-133.5 78t-91 132t-33 183z" />
<glyph unicode="d" d="M102 412q0 145 64 272t180 205t256 78q91 0 168 -29.5t128 -78.5t81 -109.5t35 -126.5l157 743q3 10 9 10h2q8 0 6 -10l-256 -1202q-8 -29 -8 -52q0 -10 2 -18q4 -28 12.5 -45.5t25.5 -26.5t31.5 -12t30.5 -2q1 0 2 -3.5t-2 -7t-10 -3.5q-22 0 -41.5 7t-39.5 26 q-21 19 -25 52q-2 11 -1 24q0 26 6 61l21 92q-66 -129 -174 -198.5t-240 -69.5q-186 0 -303 116t-117 308zM119 412q0 -184 112 -297t293 -113q82 0 158 32t130.5 83.5t92.5 113t51 123.5l45 211v9q0 97 -43 180q-45 87 -139 142.5t-219 55.5q-133 0 -245 -76t-174 -199.5 t-62 -264.5z" />
<glyph unicode="e" horiz-adv-x="1036" d="M98 367q0 117 44.5 226.5t121 192t184.5 132t228 49.5q144 0 225.5 -63t81.5 -148q0 -41 -14 -76t-51.5 -70t-97 -59.5t-158.5 -39.5t-228 -15q-128 0 -301 18q-18 -70 -18 -147q0 -165 100.5 -265t284.5 -100q123 0 217.5 49.5t142.5 130.5q10 0 10 -8q0 -19 -49 -68 q-118 -118 -323 -118q-191 0 -295.5 104t-104.5 275zM137 528q170 -18 297 -18q155 0 264.5 21t165.5 58t79.5 77.5t23.5 89.5q0 79 -77 137.5t-216 58.5q-189 0 -337 -120.5t-200 -303.5z" />
<glyph unicode="f" horiz-adv-x="548" d="M121 944q0 4 4 8q2 2 12 2h199l24 117q11 50 21 86.5t31 82.5t47.5 75.5t69.5 50t96 20.5q94 0 147 -53q16 -16 16 -28q0 -6 -3.5 -8.5t-6.5 -0.5q-37 76 -155 76q-51 0 -91.5 -21t-64.5 -49t-44 -75t-28 -78t-18 -78l-25 -117h260q11 0 11 -4q0 -3 -5 -8q-2 -2 -12 -2 h-258l-198 -932q-2 -10 -9 -10h-2q-9 0 -6 10l199 932h-201q-10 0 -10 4z" />
<glyph unicode="g" horiz-adv-x="1132" d="M14 -139q0 12 11 12q8 -45 34 -86.5t70.5 -78.5t116.5 -59t162 -22q202 0 315 104.5t160 323.5l51 242q-60 -121 -170 -194.5t-252 -73.5q-113 0 -206.5 49t-150.5 143t-57 215q0 143 61 263.5t175.5 194t257.5 73.5q91 0 168 -29.5t128 -78.5t81 -109.5t35 -126.5 l65 309q6 24 14 24q7 0 7 -4l-191 -897q-48 -225 -165.5 -333.5t-327.5 -108.5q-207 0 -322 115q-35 35 -52.5 75.5t-17.5 57.5zM115 436q0 -175 116.5 -284t282.5 -109q85 0 163 32t133 83.5t93 113t51 123.5l37 170v9q0 97 -43 180q-45 87 -139 142.5t-219 55.5 q-137 0 -246.5 -71t-169 -188.5t-59.5 -256.5z" />
<glyph unicode="h" horiz-adv-x="1087" d="M51 8l289 1358q2 10 8 10h2q8 0 6 -10l-145 -684q170 285 446 285q138 0 223 -80.5t85 -222.5q0 -56 -12.5 -123.5t-45.5 -210.5q-41 -171 -41 -228q0 -52 30 -74q27 -20 64 -20h7q2 0 2 -4q0 -2 -3 -6t-10 -4q-44 0 -75 26.5t-31 81.5q0 57 41 228q57 248 57 334 q0 136 -80 212t-213 76q-80 0 -149.5 -24t-124.5 -68.5t-97 -96.5t-81 -120l-135 -635q-2 -10 -9 -10h-2q-7 0 -7 6q0 2 1 4z" />
<glyph unicode="i" horiz-adv-x="335" d="M90 79q-2 11 -2 24q0 26 6 61l166 782q2 10 8 10h2q8 0 6 -10l-165 -782q-7 -28 -7 -51q0 -11 2 -19q4 -28 12.5 -45.5t25 -26.5t31 -12t30.5 -2q1 0 2 -3.5t-2 -7t-10 -3.5q-22 0 -41.5 7t-39.5 26t-24 52zM319 1274q0 13 6.5 21t14.5 8q22 0 22 -17q0 -13 -6 -21 t-14 -8q-23 0 -23 17z" />
<glyph unicode="j" horiz-adv-x="335" d="M-336 -322q0 3 3 6t5 3q52 -60 144 -60q76 0 131.5 57.5t79.5 170.5l233 1091q2 10 8 10h2q8 0 6 -10l-233 -1093q-26 -119 -85 -179.5t-144 -60.5q-51 0 -89 17t-53 32q-8 8 -8 16zM319 1274q0 13 6.5 21t14.5 8q22 0 22 -17q0 -13 -6 -21t-14 -8q-23 0 -23 17z" />
<glyph unicode="k" horiz-adv-x="808" d="M51 8l289 1358q0 10 8 10h2q6 0 6 -10l-182 -856l666 448q4 0 6 -3q1 -2 1 -4q-1 -1 -1 -3q-2 -4 -8 -10l-643 -432l368 -406q59 -66 91 -80q21 -9 47 -9q14 0 30 3q2 0 3 -5t-7 -10t-27 -5q-36 0 -66 18.5t-83 77.5l-377 416l-106 -498q-2 -10 -9 -10h-2q-7 0 -7 6 q0 2 1 4z" />
<glyph unicode="l" horiz-adv-x="335" d="M90 79q-2 11 -2 24q0 26 6 61l256 1202q2 10 8 10h2q8 0 8 -6q0 -2 -1 -4l-256 -1202q-7 -28 -7 -51q0 -11 2 -19q4 -28 12.5 -45.5t25 -26.5t31 -12t30.5 -2q1 0 2 -3.5t-2 -7t-10 -3.5q-22 0 -41.5 7t-39.5 26t-24 52z" />
<glyph unicode="m" horiz-adv-x="1757" d="M51 8l201 944q0 4 6 4q12 0 6 -24l-47 -225q170 260 430 260q115 1 200 -81q79 -76 79 -192v-16q61 132 171 210.5t265 78.5q125 0 204 -77t79 -212q0 -54 -12 -121t-50 -227q-41 -171 -41 -228q0 -52 30 -74q27 -20 63 -20h7q1 0 2 -3.5t-2 -7t-10 -3.5q-44 0 -75 26.5 t-31 81.5q0 57 41 228q37 160 49 228t12 120q0 129 -73.5 201.5t-194.5 72.5q-154 0 -265.5 -86t-166.5 -219l-137 -639q-5 -10 -9 -10h-2q-8 0 -6 10l131 610q8 36 8 70q0 32 -8 64q-16 64 -54.5 107t-92.5 68t-113 25q-263 0 -436 -284l-141 -660q-2 -10 -9 -10h-2 q-7 0 -7 6q0 2 1 4z" />
<glyph unicode="n" horiz-adv-x="1087" d="M51 8l201 944q0 4 6 4q9 0 6 -24l-53 -250q170 285 446 285q138 0 223 -80.5t85 -222.5q0 -56 -12.5 -123.5t-45.5 -210.5q-41 -171 -41 -228q0 -52 30 -74q27 -20 64 -20h7q2 0 2 -4q0 -2 -3 -6t-10 -4q-44 0 -75 26.5t-31 81.5q0 57 41 228q57 248 57 334 q0 136 -80 212t-213 76q-80 0 -149.5 -24t-124.5 -68.5t-97 -96.5t-81 -120l-135 -635q-2 -10 -9 -10h-2q-7 0 -7 6q0 2 1 4z" />
<glyph unicode="o" horiz-adv-x="1146" d="M98 412q0 117 44 222t116.5 177t167 114t192.5 42q192 0 311.5 -121t119.5 -303q0 -117 -44.5 -222t-117 -177t-167 -114t-192.5 -42q-192 0 -311 121t-119 303zM115 412q0 -175 114 -292.5t301 -117.5q95 0 185.5 41.5t160.5 112t113 172.5t43 215q0 175 -114 292 t-302 117q-95 0 -185.5 -41t-160.5 -111.5t-112.5 -172.5t-42.5 -215z" />
<glyph unicode="p" d="M-29 -367l281 1319q0 4 6 4q9 0 6 -24l-51 -234q59 120 168.5 194.5t247.5 74.5q186 0 303 -116t117 -308q0 -145 -64 -272t-180 -205t-256 -78q-91 0 -168.5 29.5t-128.5 78.5t-81.5 109.5t-35.5 126.5l-147 -699q-2 -10 -8 -10h-3q-7 0 -7 6q0 1 1 4zM150 333 q7 -50 24 -97.5t53.5 -90t81.5 -74.5t108 -50.5t134 -18.5q100 0 190 45t153.5 119.5t100.5 173t37 203.5q0 184 -112 296.5t-293 112.5q-152 0 -262.5 -90t-161.5 -221l-47 -211q-8 -31 -8 -62q0 -18 2 -35z" />
<glyph unicode="q" d="M102 412q0 145 64 272t180 205t256 78q91 0 168 -29.5t128 -78.5t81 -109.5t35 -126.5l65 311q5 22 15 22q6 0 6 -4l-281 -1319q-3 -10 -8 -10h-2q-9 0 -6 10l133 623q-59 -120 -168.5 -194t-245.5 -74q-186 0 -303 116t-117 308zM119 412q0 -184 112 -297t293 -113 q82 0 158 32t130.5 83.5t92.5 113t51 123.5l45 211v9q0 97 -43 180q-45 87 -139 142.5t-219 55.5q-133 0 -245 -76t-174 -199.5t-62 -264.5z" />
<glyph unicode="r" horiz-adv-x="626" d="M51 8l201 944q0 4 6 4q9 0 6 -24l-53 -248q106 283 313 283q39 0 74.5 -13t52.5 -27.5t17 -23.5q0 -8 -9 -8q-16 24 -52.5 40.5t-84.5 16.5q-123 0 -212 -112.5t-138 -339.5l-104 -492q-2 -10 -9 -10h-2q-7 0 -7 6q0 2 1 4z" />
<glyph unicode="s" horiz-adv-x="874" d="M14 190q0 9 11 9q27 -76 130.5 -136.5t237.5 -60.5q162 0 251 65.5t89 170.5q0 37 -18 69t-36.5 51t-67.5 42t-70 30.5t-84 28.5q-2 1 -3.5 1.5t-3.5 1t-4 1.5q-40 13 -66 22.5t-60.5 24.5t-57 28.5t-47 33t-38.5 40.5t-23 48.5t-9 58.5q0 100 87.5 174t234.5 74 q105 0 188 -32t136 -85q45 -49 45 -74q0 -8 -11 -8q-27 78 -126 131t-232 53q-140 0 -222.5 -69.5t-82.5 -163.5q0 -30 10 -57t22.5 -46t39.5 -38.5t46 -31t57.5 -27t58.5 -22.5t63 -22q56 -18 89.5 -30.5t76.5 -34.5t67 -44t41 -55t17 -73q0 -111 -93.5 -180.5 t-263.5 -69.5q-99 0 -185 34.5t-140 86.5q-54 54 -54 81z" />
<glyph unicode="t" horiz-adv-x="612" d="M106 944q0 3 5 8q2 2 12 2h186l47 224q5 22 15 22q6 0 6 -4q0 1 -12.5 -59.5t-25.5 -121.5l-13 -61h327q11 0 11 -4q0 -3 -5 -8q-2 -2 -12 -2h-325l-138 -643q-12 -57 -12 -104q0 -71 28 -116q46 -75 158 -75q44 0 84 20t66 56q6 -3 6 -10q0 -9 -12 -21q-59 -59 -144 -59 q-118 0 -170 79q-32 49 -32 125q0 47 12 105l137 643h-188q-11 0 -11 4z" />
<glyph unicode="u" horiz-adv-x="1087" d="M130 244q-6 34 -6 75q0 64 15 142l105 485q2 10 8 10h2q8 0 6 -10l-104 -485q-15 -79 -16 -144q0 -36 6 -67q14 -87 63 -142t114 -80.5t144 -25.5q256 0 410 270l143 674q2 10 8 10h2q8 0 6 -10l-166 -782q-5 -35 -5 -60q0 -14 1 -24q4 -32 23 -47.5t37 -20.5t39 -4 q1 0 1.5 -3.5t-2.5 -7t-10 -3.5q-22 0 -41.5 7t-39 26t-23.5 52q-2 11 -2 24q0 26 6 61l16 74q-151 -250 -405 -250q-82 0 -150 26.5t-119 83t-66 146.5z" />
<glyph unicode="v" horiz-adv-x="884" d="M43 952q1 4 3 6q4 4 11 3q47 0 80 -33q42 -42 62 -162l123 -752l618 940q5 3 7 -7q1 -3 1 -5q0 -3 -2 -6l-610 -928q-7 -10 -14 -10q-12 0 -15 12l-125 754q-18 104 -51 144q-31 38 -81 38h-5t-2 6z" />
<glyph unicode="w" horiz-adv-x="1314" d="M92 952q0 4 2 6q4 4 12 3q47 0 80 -33q45 -45 45 -172v-742l465 750q11 16 21 16q7 0 10 -4.5t6 -19.5l113 -742l471 942q9 6 11 -4l-3 -14l-463 -928q-6 -12 -16 -12q-15 0 -17 22l-114 744l-467 -754q-8 -12 -17 -12q-16 0 -16 16v740q0 192 -116 192h-4.5t-2.5 6z" />
<glyph unicode="x" horiz-adv-x="884" d="M-41 14l473 469l-260 467q0 4 3 6q2 1 3.5 1t3.5 -1q4 -2 8 -8l254 -454l474 462q4 0 6 -2t2 -6v-1q0 -4 -6 -9l-467 -457l198 -364q37 -70 75 -92q24 -14 50 -14q15 0 31 5q2 0 3 -5.5t-7 -11t-27 -5.5q-75 0 -137 115l-199 362l-479 -475q-3 0 -5 2t-3 6q0 4 6 10z" />
<glyph unicode="y" horiz-adv-x="872" d="M-168 -332q0 8 8 8q36 -49 103 -49q53 0 96.5 30.5t93.5 106.5l197 299q-7 0 -11 13l-135 688q-22 106 -56 145q-32 37 -82 37h-5q-1 0 -2.5 4t1.5 7.5t11 3.5q49 0 82 -33q46 -46 68 -162l135 -694l582 882q5 2 8 -4q2 -2 2 -5t-2 -7l-779 -1180q-56 -86 -100 -115.5 t-104 -29.5q-64 0 -105 41q-6 6 -6 14z" />
<glyph unicode="z" horiz-adv-x="880" d="M-37 10q0 8 17 25l897 905h-691q-14 0 -14 6q0 8 6 8h711q6 0 6 -10q0 -8 -16 -24l-897 -906h723q14 0 14 -6q0 -8 -6 -8h-744q-6 0 -6 10z" />
<glyph unicode="{" horiz-adv-x="727" d="M53 485q0 11 13 17l223 125q92 358 258 524q59 59 133 104.5t118 62.5t56 17q4 0 4 -6.5t-4 -7.5q-174 -59 -297 -182q-78 -78 -144.5 -212t-109.5 -311l-237 -131l176 -155q-32 -197 3.5 -359t125.5 -252q77 -77 127 -94q2 -5 0 -9.5t-6 -4.5q-7 0 -23 8.5t-46 31.5 t-63 56q-97 97 -132.5 261t-2.5 356l-162 143q-10 7 -10 18z" />
<glyph unicode="|" horiz-adv-x="405" d="M16 -367l357 1684q3 10 8 10h2q9 0 6 -10l-356 -1684q-3 -10 -8 -10h-2q-9 0 -7 10z" />
<glyph unicode="}" horiz-adv-x="727" d="M-136 -380.5q0 6.5 5 7.5q172 59 297 183q78 78 144.5 211.5t109.5 310.5l237 131l-176 155q32 197 -3.5 359t-125.5 252q-77 77 -127 94q-2 5 0 9.5t6 4.5q7 0 23.5 -9t46 -32t61.5 -55q98 -98 133 -261t3 -355l161 -144q11 -8 11 -18q0 -8 -13 -17l-223 -124 q-92 -359 -258 -525q-59 -59 -133 -104.5t-118 -62.5t-56 -17q-5 0 -5 6.5z" />
<glyph unicode="~" horiz-adv-x="1019" d="M264 379q24 84 56 122t75 38q35 0 61 -20.5t56 -59.5q22 -29 33.5 -41.5t31 -23.5t41.5 -11q32 0 59 30t44 83q12 36 20 36q3 0 7 -4q-24 -83 -56.5 -121t-75.5 -38q-35 0 -59.5 19.5t-56.5 60.5q-31 40 -53 57.5t-54 17.5q-65 0 -102 -112q-12 -37 -21 -37q-2 0 -6 4z " />
<glyph unicode="&#xa1;" horiz-adv-x="405" d="M94 8l209 979q3 10 8 10q9 0 6 -10l-206 -979q-3 -10 -11 -10t-6 10zM352 1296q0 17 10 27q6 6 17 6q24 0 24 -20q0 -17 -10 -27q-6 -6 -16 -6q-25 0 -25 20z" />
<glyph unicode="&#xa2;" horiz-adv-x="1017" d="M106 504q0 108 39 210.5t107.5 180.5t168.5 124.5t214 43.5l57 272q3 11 8 11h2q10 0 7 -11l-58 -272q149 -10 252 -113q38 -38 59 -91t21 -83q0 -15 -14 -12q-5 107 -92 191.5t-230 93.5l-201 -945q38 -6 82 -6q127 0 220 63.5t133 143.5q10 0 10 -8q0 -10 -16 -35 t-48 -57q-121 -121 -301 -121q-41 0 -84 6l-59 -280q-3 -11 -8 -11h-2q-9 0 -6 11l59 282q-144 29 -232 135t-88 277zM123 504q0 -165 84 -268t223 -130l201 943q-145 5 -263.5 -74t-181.5 -204.5t-63 -266.5z" />
<glyph unicode="&#xa3;" horiz-adv-x="1126" d="M6 4q0 4 4 8q2 2 13 2h170l163 561h-221q-10 0 -10 5q0 4 4 8q2 2 12 2h219l86 297q69 241 165 351t251 110q127 0 209 -82q29 -29 46.5 -67t17.5 -54q0 -10 -13 -10q-18 93 -91 145.5t-171 52.5q-146 0 -237.5 -106.5t-159.5 -339.5l-86 -297h467q10 0 10 -4t-4 -8 q-3 -3 -12 -3h-465l-164 -561h752q10 0 10 -4q0 -10 -4 -10h-951q-10 0 -10 4z" />
<glyph unicode="&#xa4;" horiz-adv-x="1251" d="M80 502q0 4 4 8q2 2 12 2h1h1h1h1h1h1h1h1h1h1h1h1h1h1h1h1h1h1h1h1h1h1h1h1h1h1h1h1h1h1h1h1h1h1h1h1h1h1h1h2h1h1h1h1h1h1h2h1h1h1h1h2h1h1h1h1h2h1h1h2h1h1h2h1h1h2h1h1h2h1h1h2h1h2h1h1h2h1h2h1h2h1h2h1h2h1h2h1h2h1h2h1h2h1h2h2h1h2h1h2h2h1h2h2h1h2h1h2h2h2h1h2h2 h1h2h2h1h2h2h2h1h2h2h2h2h1h2h2h2h2h1h2h2h2h2h2h2h1h2h2h10q13 168 57 311h-196q-10 0 -10 4q0 5 4 9q2 2 12 2h194q69 222 197 350q75 75 160.5 112t195.5 37q171 0 279 -108q31 -31 51.5 -76.5t20.5 -69.5q0 -5 -3.5 -7t-7.5 -1q-9 45 -32.5 86t-63.5 79t-103.5 60.5 t-142.5 22.5q-197 0 -344 -147q-120 -120 -190 -338h547q10 0 10 -4q0 -5 -4 -9q-2 -2 -12 -2h-545q-48 -159 -56 -311h537q10 0 10 -4t-4 -8q-2 -2 -12 -2h-533v-33q0 -224 111.5 -343.5t294.5 -119.5q126 0 225.5 68t132.5 149q4 1 7.5 -1t3.5 -7q0 -11 -19.5 -41 t-50.5 -61q-54 -54 -133.5 -87.5t-167.5 -33.5q-189 0 -304.5 123t-115.5 354v33h-209q-10 0 -10 4z" />
<glyph unicode="&#xa5;" horiz-adv-x="1052" d="M61 285q0 3 5 8q2 2 12 2h405l62 293h-408q-10 0 -10 4t4 8q2 2 12 2h404l-342 719q9 17 20 -8l332 -699l600 711q8 5 11 -2q2 -5 -7 -16l-596 -705h408q10 0 10 -4t-4 -8q-2 -2 -12 -2h-406l-61 -293h407q11 0 11 -4q0 -3 -5 -8q-2 -2 -12 -2h-405l-58 -273 q-2 -10 -8 -10h-2q-8 0 -6 10l57 273h-407q-11 0 -11 4z" />
<glyph unicode="&#xa7;" horiz-adv-x="935" d="M-35 -55q0 10 15 10q7 -99 105.5 -173.5t276.5 -74.5q160 0 256.5 86.5t96.5 210.5q0 43 -15.5 77.5t-39.5 59.5t-67 48.5t-84.5 40.5t-105.5 38q-63 21 -106 38.5t-87 42.5t-70.5 52t-43 63.5t-16.5 80.5q0 109 94.5 178t231.5 80q-90 40 -137.5 90.5t-47.5 130.5 q0 128 103 220.5t268 92.5q111 0 188.5 -34.5t120.5 -77.5q32 -32 49 -72.5t17 -58.5q0 -7 -4.5 -10.5t-10.5 -0.5q-10 95 -106.5 167.5t-255.5 72.5q-158 0 -255 -88.5t-97 -210.5q0 -41 15 -74.5t39.5 -58t67 -47.5t84.5 -40t105 -38t106 -38.5t87 -42.5t70.5 -52 t43 -63.5t16.5 -80.5q0 -109 -94 -178t-231 -80q88 -39 136 -92.5t48 -134.5q0 -131 -101.5 -221t-269.5 -90q-111 0 -193.5 31.5t-125.5 74.5q-38 38 -57 78.5t-19 67.5zM96 545q0 -95 80 -154.5t236 -109.5q45 -13 106 -39q140 8 239 73.5t99 173.5q0 95 -80 155t-235 110 q-49 14 -107 39q-140 -8 -239 -74t-99 -174z" />
<glyph unicode="&#xa8;" horiz-adv-x="1024" d="M485 1120q0 13 6.5 21t14.5 8q22 0 22 -16q0 -13 -6 -21t-14 -8q-23 0 -23 16zM770 1120q0 13 6.5 21t14.5 8q22 0 22 -16q0 -13 -6 -21t-14 -8q-23 0 -23 16z" />
<glyph unicode="&#xa9;" horiz-adv-x="1497" d="M131 659q0 193 84 348t234.5 242.5t338.5 87.5q291 0 473.5 -187t182.5 -484q0 -193 -84.5 -348t-235 -242.5t-338.5 -87.5q-291 0 -473 187t-182 484zM147 659q0 -291 177 -474t462 -183q184 0 330.5 85.5t228.5 237.5t82 341q0 291 -177 474t-462 183 q-184 0 -330.5 -85.5t-228.5 -237.5t-82 -341zM465 659q0 156 94 258.5t244 102.5q135 0 213 -78q24 -24 37.5 -51.5t13.5 -40.5q0 -8 -10 -8q-15 66 -80.5 115t-173.5 49q-146 0 -234 -99t-88 -248q0 -150 86.5 -247t239.5 -97q64 0 114 18t78.5 47.5t44 56.5t21.5 55 q10 0 10 -9q0 -15 -14 -46t-47 -64q-72 -72 -207 -72q-158 0 -250 100.5t-92 257.5z" />
<glyph unicode="&#xaa;" horiz-adv-x="876" d="M158 893q0 115 51 216.5t143.5 164.5t204.5 63q143 0 230.5 -82t97.5 -194l51 250q3 18 12 18q6 0 6 -4l-133 -631q-25 -121 74 -121q1 -1 1 -4t-3 -6.5t-8 -3.5q-18 0 -33.5 5.5t-31.5 20.5t-19 41t4 68l16 74q-53 -103 -139.5 -159t-196.5 -56q-139 0 -233 95.5 t-94 244.5zM174 893q0 -141 90 -233.5t223 -92.5t230 87t121 194l36 168q2 127 -83.5 217t-235.5 90q-107 0 -195.5 -61t-137 -159.5t-48.5 -209.5zM317 16q0 16 11 27q6 6 16 6q25 0 25 -20q0 -16 -11 -27q-6 -6 -16 -6q-25 0 -25 20z" />
<glyph unicode="&#xab;" horiz-adv-x="909" d="M84 489q0 3 223 154q209 141 215 141t6 -6q0 -5 -211 -145q-51 -34 -117 -79t-96 -65q128 -122 152 -145q147 -139 147 -143q0 -6 -6 -6t-151 139q-35 33 -66.5 63t-47.5 44.5t-28 26t-16 15.5t-4 6zM422 489q0 3 223 154q209 141 215 141t6 -6q0 -5 -211 -145 q-51 -34 -117 -79t-96 -65q128 -122 152 -145q147 -139 147 -143q0 -6 -6 -6t-151 139q-35 33 -66.5 63t-47.5 44.5t-28 26t-16 15.5t-4 6z" />
<glyph unicode="&#xac;" horiz-adv-x="1357" d="M135 565q0 147 53 287t144 247t222 172.5t277 65.5q230 0 367 -137q47 -47 72.5 -107t25.5 -98q0 -10 -4.5 -14t-9.5 -2q-5 67 -36.5 128t-86.5 109.5t-140.5 77.5t-189.5 29q-115 0 -221 -41.5t-187.5 -114.5t-143 -168t-93.5 -207t-32 -227q0 -268 151 -415.5 t402 -147.5q232 0 376 141t181 435h-512q-11 0 -11 4t4 8q2 2 13 2h508q14 0 14 -14q0 -32 -14 -101.5t-58 -173.5t-108 -168q-147 -147 -396 -147q-257 0 -412 151.5t-155 425.5z" />
<glyph unicode="&#xad;" horiz-adv-x="647" d="M84 535q0 4 4 8q2 2 12 2h478q10 0 10 -4q0 -5 -4 -9q-2 -2 -13 -2h-477q-10 0 -10 5z" />
<glyph unicode="&#xae;" horiz-adv-x="1497" d="M131 659q0 193 84 348t234.5 242.5t338.5 87.5q291 0 473.5 -187t182.5 -484q0 -193 -84.5 -348t-235 -242.5t-338.5 -87.5q-291 0 -473 187t-182 484zM147 659q0 -291 177 -474t462 -183q184 0 330.5 85.5t228.5 237.5t82 341q0 291 -177 474t-462 183 q-184 0 -330.5 -85.5t-228.5 -237.5t-82 -341zM586 330v678q0 16 14 16h184q123 0 186.5 -51t63.5 -144t-63 -143.5t-183 -50.5h-81l335 -305q1 -3 -1 -5.5t-5 -2.5q-8 0 -16 8l-330 305h-88v-305q0 -11 -6 -11h-4q-6 0 -6 11zM602 649h186q114 0 172 46.5t58 133.5t-59 134 t-175 47h-182v-361z" />
<glyph unicode="&#xaf;" horiz-adv-x="1024" d="M444 1157q0 3 5 8q2 2 12 2h397q10 0 10 -4t-4 -8q-2 -2 -12 -2h-397q-11 0 -11 4z" />
<glyph unicode="&#xb0;" horiz-adv-x="655" d="M231 1071q0 103 73.5 184.5t180.5 81.5q88 0 145.5 -55.5t57.5 -142.5q0 -104 -73.5 -185.5t-180.5 -81.5q-88 0 -145.5 56t-57.5 143zM248 1071q0 -82 52 -133t134 -51q100 0 169 77t69 175q0 81 -52.5 132.5t-134.5 51.5q-100 0 -168.5 -76.5t-68.5 -175.5z" />
<glyph unicode="&#xb1;" horiz-adv-x="708" d="M-25 4q0 3 5 8q2 2 12 2h282l265 1241q-29 -47 -84.5 -78.5t-116.5 -31.5q-82 0 -119 37q-12 12 -12 22q0 8 8 8q20 -53 125 -53q73 0 137 49t76 119h6q11 0 6 -20l-274 -1293h268q10 0 10 -4t-4 -8q-2 -2 -12 -2h-567q-11 0 -11 4z" />
<glyph unicode="&#xb4;" horiz-adv-x="1024" d="M514 1098q0 6 195 153q88 66 94 66q4 0 4 -6q0 -5 -92 -74q-86 -63 -133 -96t-57.5 -39t-10.5 -4z" />
<glyph unicode="&#xb6;" horiz-adv-x="1030" d="M195 958q0 168 116 267.5t355 99.5h262q22 0 16 -22l-274 -1295q-2 -10 -8 -10h-3q-7 0 -4 10l144 680h-191q-203 0 -308 68.5t-105 201.5zM748 8l278 1309q2 10 8 10h2q7 0 4 -10l-278 -1309q-2 -10 -8 -10h-2q-7 0 -4 10z" />
<glyph unicode="&#xb7;" horiz-adv-x="348" d="M160 530q0 17 10 27q6 6 16 6q25 0 25 -20q0 -17 -10 -27q-6 -6 -17 -6q-24 0 -24 20z" />
<glyph unicode="&#xb8;" horiz-adv-x="1024" d="M210.5 -377q-1.5 3 0.5 6q13 18 34 47t65 91t73.5 103t28.5 40q1 1 4.5 0t6.5 -4t3 -8q0 -8 -10 -21l-195 -256q-2 -3 -5.5 -2t-5 4z" />
<glyph unicode="&#xba;" horiz-adv-x="880" d="M158 891q0 94 35.5 178t93 142t133.5 92t155 34q153 0 249 -97t96 -241q0 -94 -35.5 -178t-93.5 -142t-134 -92t-155 -34q-153 0 -248.5 97t-95.5 241zM174 891q0 -137 91.5 -230.5t238.5 -93.5q156 0 277.5 126t121.5 306q0 137 -91.5 230.5t-238.5 93.5 q-156 0 -277.5 -126t-121.5 -306zM317 16q0 16 11 27q6 6 16 6q25 0 25 -20q0 -16 -11 -27q-6 -6 -16 -6q-25 0 -25 20z" />
<glyph unicode="&#xbb;" horiz-adv-x="909" d="M47 201q0 5 211 145q12 8 213 143q-17 16 -43.5 42t-52.5 51t-56 53q-147 139 -147 143q0 6 6 6q7 0 152 -139q26 -24 50 -47.5t39.5 -37.5t29 -27t21 -20t13 -12.5t7.5 -8t2 -3.5t-224 -153q-209 -141 -215 -141t-6 6zM385 201q0 5 211 145q12 8 213 143 q-17 16 -43.5 42t-52.5 51t-56 53q-147 139 -147 143q0 6 6 6q7 0 152 -139q46 -44 103 -98q37 -35 47.5 -45t10.5 -13q0 -2 -223 -153q-209 -141 -215 -141t-6 6z" />
<glyph unicode="&#xbf;" horiz-adv-x="913" d="M23 297q0 137 74 227t220 144q123 45 189.5 83.5t88 70.5t21.5 75q0 38 -28 64.5t-76 25.5q-1 0 -2 3.5t2 7t10 3.5q50 0 80.5 -31.5t30.5 -72.5q0 -35 -11.5 -61.5t-44 -56t-95 -60.5t-160.5 -66q-140 -51 -211.5 -137t-71.5 -219q0 -136 93.5 -215.5t248.5 -79.5 q147 0 254.5 77t142.5 195q13 0 13 -12q0 -6 -9.5 -28t-33.5 -58.5t-54 -66.5q-55 -55 -137 -88t-178 -33q-161 0 -258.5 83.5t-97.5 225.5zM655 1296q0 16 11 27q6 6 16 6q25 0 25 -20q0 -16 -11 -27q-6 -6 -16 -6q-25 0 -25 20z" />
<glyph unicode="&#xc0;" horiz-adv-x="1167" d="M-71 2q-1 5 5 16l793 1299q7 10 14 10q12 0 15 -12l284 -1311q-2 -4 -5.5 -5.5t-7 2t-5.5 11.5l-111 510h-651l-319 -522q-9 -6 -12 2zM268 537h641l-168 774zM543 1690q0 6 6 6q8 0 80 -66q58 -53 90 -82.5t48.5 -45.5t20.5 -20t3 -5q-6 -6 -173 139q-35 30 -52 46 t-20 20t-3 8z" />
<glyph unicode="&#xc1;" horiz-adv-x="1167" d="M-71 2q-1 5 5 16l793 1299q7 10 14 10q12 0 15 -12l284 -1311q-2 -4 -5.5 -5.5t-7 2t-5.5 11.5l-111 510h-651l-319 -522q-9 -6 -12 2zM268 537h641l-168 774zM694 1477q0 6 195 153q88 66 94 66q4 0 4 -6q0 -5 -92 -74q-86 -63 -133 -96t-57.5 -39t-10.5 -4z" />
<glyph unicode="&#xc2;" horiz-adv-x="1167" d="M-71 2q-1 5 5 16l793 1299q7 10 14 10q12 0 15 -12l284 -1311q-2 -4 -5.5 -5.5t-7 2t-5.5 11.5l-111 510h-651l-319 -522q-9 -6 -12 2zM268 537h641l-168 774zM567 1479q0 5 127 139q117 125 123 125q9 0 70 -125q67 -135 67 -139q0 -6 -6 -6t-74 135q-19 37 -36.5 71.5 t-22.5 44.5q-19 -20 -49.5 -53t-58.5 -63q-48 -51 -72.5 -77t-38.5 -39.5t-17 -16t-6 -2.5q-6 0 -6 6z" />
<glyph unicode="&#xc3;" horiz-adv-x="1167" d="M-71 2q-1 5 5 16l793 1299q7 10 14 10q12 0 15 -12l284 -1311q-2 -4 -5.5 -5.5t-7 2t-5.5 11.5l-111 510h-651l-319 -522q-9 -6 -12 2zM268 537h641l-168 774zM543 1481q24 84 56 121.5t75 37.5q35 0 61 -20t56 -59q22 -29 33.5 -41.5t31 -23.5t41.5 -11q65 0 102 112 q12 37 21 37q2 0 6 -4q-24 -84 -56 -122t-75 -38q-35 0 -60 19.5t-57 60.5q-22 29 -33.5 41.5t-31 23.5t-41.5 11q-32 0 -59 -30t-44 -83q-12 -36 -20 -36q-2 0 -6 4z" />
<glyph unicode="&#xc4;" horiz-adv-x="1167" d="M-71 2q-1 5 5 16l793 1299q7 10 14 10q12 0 15 -12l284 -1311q-2 -4 -5.5 -5.5t-7 2t-5.5 11.5l-111 510h-651l-319 -522q-9 -6 -12 2zM268 537h641l-168 774zM610 1499q0 13 6.5 21t14.5 8q22 0 22 -17q0 -13 -6 -20.5t-14 -7.5q-23 0 -23 16zM895 1499q0 13 6 21t14 8 q23 0 23 -17q0 -13 -6 -20.5t-14 -7.5q-23 0 -23 16z" />
<glyph unicode="&#xc5;" horiz-adv-x="1167" d="M-68 4q-1 5 5 16l778 1272l10 17q-63 11 -96 56.5t-33 98.5q0 86 60.5 149.5t138.5 63.5q81 0 122 -47.5t41 -109.5q0 -87 -60 -150t-138 -63l4 -19l278 -1282q-2 -4 -5.5 -5.5t-7 2t-5.5 11.5l-111 510h-651l-319 -522q-9 -6 -11 2zM270 539h641l-168 770zM612 1464 q0 -54 37.5 -98.5t110.5 -44.5q72 0 127 58.5t55 140.5q0 54 -37 98.5t-110 44.5q-72 0 -127.5 -58.5t-55.5 -140.5z" />
<glyph unicode="&#xc6;" horiz-adv-x="1716" d="M-71 2q-1 5 5 16l789 1293q8 14 25 14h1009q10 0 10 -4t-4 -8q-2 -2 -12 -2h-993l135 -625h588q10 0 10 -4t-4 -8q-2 -2 -12 -2h-580l143 -658h502q10 0 10 -4t-4 -8q-2 -2 -12 -2h-494q-15 0 -18 12l-111 510h-651l-319 -522q-9 -6 -12 2zM268 537h641l-168 774z" />
<glyph unicode="&#xc7;" horiz-adv-x="1308" d="M131 537q0 160 53 306.5t145 255t224 173.5t281 65q229 0 366 -137q47 -47 72.5 -107t25.5 -98q0 -10 -4.5 -14t-9.5 -2q-5 67 -36.5 128t-86.5 109.5t-140.5 77.5t-189.5 29q-193 0 -351.5 -109t-245.5 -288.5t-87 -388.5q0 -245 148 -390t395 -145q84 0 158 21 t123.5 52t90.5 72.5t63.5 76.5t37.5 71q3 2 7 0t4 -6q0 -7 -9 -26.5t-36 -58t-66 -77.5q-139 -139 -375 -139q-252 0 -404.5 149t-152.5 400zM435.5 -377q-1.5 3 0.5 6q13 18 34 47t65 91t73.5 103t28.5 40q1 1 4.5 0t6.5 -4t3 -8q0 -8 -10 -21l-195 -256q-2 -3 -5.5 -2 t-5 4z" />
<glyph unicode="&#xc8;" horiz-adv-x="1077" d="M72 23l272 1288q3 14 23 14h768q10 0 10 -4t-4 -8q-2 -2 -13 -2h-768l-131 -623h553q11 0 11 -4q0 -3 -5 -8q-2 -2 -12 -2h-551l-139 -660h823q11 0 11 -4q0 -3 -5 -8q-2 -2 -12 -2h-815q-22 0 -16 23zM575 1690q0 6 7 6q8 0 80 -66q74 -67 110 -101t44 -42.5t7 -9.5 q-2 -2 -6.5 1t-22.5 16.5t-51 42t-92 79.5q-36 30 -53 46t-20 20t-3 8z" />
<glyph unicode="&#xc9;" horiz-adv-x="1077" d="M72 23l272 1288q3 14 23 14h768q10 0 10 -4t-4 -8q-2 -2 -13 -2h-768l-131 -623h553q11 0 11 -4q0 -3 -5 -8q-2 -2 -12 -2h-551l-139 -660h823q11 0 11 -4q0 -3 -5 -8q-2 -2 -12 -2h-815q-22 0 -16 23zM664 1477q0 6 194 153q88 66 94 66q4 0 4 -6q0 -5 -92 -74 q-86 -63 -132.5 -96t-57 -39t-10.5 -4z" />
<glyph unicode="&#xca;" horiz-adv-x="1077" d="M72 23l272 1288q3 14 23 14h768q10 0 10 -4t-4 -8q-2 -2 -13 -2h-768l-131 -623h553q11 0 11 -4q0 -3 -5 -8q-2 -2 -12 -2h-551l-139 -660h823q11 0 11 -4q0 -3 -5 -8q-2 -2 -12 -2h-815q-22 0 -16 23zM580 1479q0 5 127 139q117 125 122 125q9 0 70 -125 q68 -137 68 -139q0 -6 -6 -6t-74 135q-24 47 -60 116q-19 -20 -49.5 -53t-58.5 -63q-92 -98 -110 -116.5t-23 -18.5q-6 0 -6 6z" />
<glyph unicode="&#xcb;" horiz-adv-x="1077" d="M72 23l272 1288q3 14 23 14h768q10 0 10 -4t-4 -8q-2 -2 -13 -2h-768l-131 -623h553q11 0 11 -4q0 -3 -5 -8q-2 -2 -12 -2h-551l-139 -660h823q11 0 11 -4q0 -3 -5 -8q-2 -2 -12 -2h-815q-22 0 -16 23zM639 1499q0 13 6 21t14 8q23 0 23 -17q0 -13 -6 -20.5t-14 -7.5 q-23 0 -23 16zM924 1499q0 13 6 21t14 8q23 0 23 -17q0 -13 -6.5 -20.5t-14.5 -7.5q-22 0 -22 16z" />
<glyph unicode="&#xcc;" horiz-adv-x="393" d="M88 8l279 1309q3 10 8 10h2q9 0 6 -10l-279 -1309q-2 -10 -8 -10h-2q-8 0 -6 10zM211 1690q0 6 6 6q8 0 80 -66q58 -53 90 -82.5t48.5 -45.5t20.5 -20t3 -5q-2 -2 -6.5 1t-22.5 16.5t-51 42t-92 79.5q-36 30 -53 46t-20 20t-3 8z" />
<glyph unicode="&#xcd;" horiz-adv-x="393" d="M88 8l279 1309q3 10 8 10h2q9 0 6 -10l-279 -1309q-2 -10 -8 -10h-2q-8 0 -6 10zM342 1477q0 6 195 153q88 66 94 66q4 0 4 -6q0 -5 -92 -74q-86 -63 -133 -96t-57.5 -39t-10.5 -4z" />
<glyph unicode="&#xce;" horiz-adv-x="393" d="M88 8l279 1309q3 10 8 10h2q9 0 6 -10l-279 -1309q-2 -10 -8 -10h-2q-8 0 -6 10zM213 1479q0 5 127 139q117 125 123 125q8 0 69 -125q68 -137 68 -139q0 -6 -6 -6t-74 135q-19 37 -36.5 71.5t-22.5 44.5q-28 -30 -109 -116q-92 -98 -110 -116.5t-23 -18.5q-6 0 -6 6z " />
<glyph unicode="&#xcf;" horiz-adv-x="393" d="M88 8l279 1309q3 10 8 10h2q9 0 6 -10l-279 -1309q-2 -10 -8 -10h-2q-8 0 -6 10zM252 1499q0 13 6 21t14 8q23 0 23 -17q0 -13 -6.5 -20.5t-14.5 -7.5q-22 0 -22 16zM537 1499q0 13 6 21t14 8q23 0 23 -17q0 -13 -6.5 -20.5t-14.5 -7.5q-22 0 -22 16z" />
<glyph unicode="&#xd0;" horiz-adv-x="1394" d="M109 657q0 5 4 9q2 2 12 2h205l137 643q3 14 22 14h207q308 0 477.5 -151t169.5 -414q0 -164 -53.5 -303t-153 -240.5t-251 -159t-338.5 -57.5h-336q-22 0 -16 23l133 630h-209q-10 0 -10 4zM209 14h340q244 0 422 98t267 265t89 383q-2 258 -167 404.5t-466 146.5h-211 l-135 -643h522q11 0 11 -4q0 -5 -4 -9q-2 -2 -13 -2h-520z" />
<glyph unicode="&#xd1;" horiz-adv-x="1349" d="M68 8l278 1309q2 10 10 10h2q10 0 19 -18l690 -1291l276 1299q3 10 9 10h2q8 0 6 -10l-279 -1309q-3 -10 -10 -10h-2q-9 0 -18 18l-691 1291l-276 -1299q-2 -10 -8 -10h-2q-8 0 -6 10zM662 1481q24 84 56 121.5t75 37.5q35 0 60.5 -20t55.5 -59q22 -28 34 -41t31.5 -24 t41.5 -11q65 0 102 112q12 37 21 37q2 0 6 -4q-24 -84 -56 -122t-75 -38q-35 0 -60 19.5t-57 60.5q-22 29 -33.5 41.5t-31 23.5t-41.5 11q-32 0 -59 -30t-44 -83q-12 -36 -20 -36q-2 0 -6 4z" />
<glyph unicode="&#xd2;" horiz-adv-x="1466" d="M133 553q0 158 57 303t153.5 250.5t230 168t278.5 62.5q252 0 406.5 -158t154.5 -407q0 -158 -57 -303t-153.5 -250.5t-230 -168t-278.5 -62.5q-252 0 -406.5 158t-154.5 407zM150 553q0 -243 149.5 -397t396.5 -154q142 0 271.5 61.5t223.5 165.5t150 246t56 297 q0 242 -150 396.5t-397 154.5q-142 0 -271.5 -61.5t-223.5 -165.5t-149.5 -246t-55.5 -297zM707 1690q0 6 6 6q8 0 80 -66q74 -67 110 -101t44 -42.5t7 -9.5q-2 -2 -6.5 1t-22.5 16.5t-51 42t-92 79.5q-35 30 -52 46t-20 20t-3 8z" />
<glyph unicode="&#xd3;" horiz-adv-x="1466" d="M133 553q0 158 57 303t153.5 250.5t230 168t278.5 62.5q252 0 406.5 -158t154.5 -407q0 -158 -57 -303t-153.5 -250.5t-230 -168t-278.5 -62.5q-252 0 -406.5 158t-154.5 407zM150 553q0 -243 149.5 -397t396.5 -154q142 0 271.5 61.5t223.5 165.5t150 246t56 297 q0 242 -150 396.5t-397 154.5q-142 0 -271.5 -61.5t-223.5 -165.5t-149.5 -246t-55.5 -297zM797 1477q0 6 194 153q88 66 94 66q5 0 5 -6q0 -4 -93 -74q-86 -63 -132.5 -96t-57 -39t-10.5 -4z" />
<glyph unicode="&#xd4;" horiz-adv-x="1466" d="M133 553q0 158 57 303t153.5 250.5t230 168t278.5 62.5q252 0 406.5 -158t154.5 -407q0 -158 -57 -303t-153.5 -250.5t-230 -168t-278.5 -62.5q-252 0 -406.5 158t-154.5 407zM150 553q0 -243 149.5 -397t396.5 -154q142 0 271.5 61.5t223.5 165.5t150 246t56 297 q0 242 -150 396.5t-397 154.5q-142 0 -271.5 -61.5t-223.5 -165.5t-149.5 -246t-55.5 -297zM715 1479q0 5 127 139q117 125 123 125q8 0 69 -125q68 -137 68 -139q0 -6 -6 -6t-74 135q-19 37 -36.5 71.5t-22.5 44.5q-28 -30 -109 -116q-92 -98 -110 -116.5t-23 -18.5 q-6 0 -6 6z" />
<glyph unicode="&#xd5;" horiz-adv-x="1466" d="M133 553q0 158 57 303t153.5 250.5t230 168t278.5 62.5q252 0 406.5 -158t154.5 -407q0 -158 -57 -303t-153.5 -250.5t-230 -168t-278.5 -62.5q-252 0 -406.5 158t-154.5 407zM150 553q0 -243 149.5 -397t396.5 -154q142 0 271.5 61.5t223.5 165.5t150 246t56 297 q0 242 -150 396.5t-397 154.5q-142 0 -271.5 -61.5t-223.5 -165.5t-149.5 -246t-55.5 -297zM629 1481q24 84 56 121.5t75 37.5q35 0 61 -20t56 -59q22 -29 33.5 -41.5t31 -23.5t41.5 -11q65 0 102 112q12 37 21 37q2 0 6 -4q-24 -84 -56 -122t-75 -38q-35 0 -60 19.5 t-57 60.5q-22 29 -33.5 41.5t-31 23.5t-41.5 11q-32 0 -59 -30t-44 -83q-12 -36 -20 -36q-2 0 -6 4z" />
<glyph unicode="&#xd6;" horiz-adv-x="1466" d="M133 553q0 158 57 303t153.5 250.5t230 168t278.5 62.5q252 0 406.5 -158t154.5 -407q0 -158 -57 -303t-153.5 -250.5t-230 -168t-278.5 -62.5q-252 0 -406.5 158t-154.5 407zM150 553q0 -243 149.5 -397t396.5 -154q142 0 271.5 61.5t223.5 165.5t150 246t56 297 q0 242 -150 396.5t-397 154.5q-142 0 -271.5 -61.5t-223.5 -165.5t-149.5 -246t-55.5 -297zM748 1499q0 13 6 21t14 8q23 0 23 -17q0 -13 -6.5 -20.5t-14.5 -7.5q-22 0 -22 16zM1032 1499q0 13 6.5 21t14.5 8q22 0 22 -17q0 -13 -6 -20.5t-14 -7.5q-23 0 -23 16z" />
<glyph unicode="&#xd7;" horiz-adv-x="1103" d="M195 230q0 4 4 8l360 317l-235 324q-4 5 -2.5 9t6 3.5t8.5 -4.5l235 -322l361 316q4 3 8 1t4 -6t-4 -8l-360 -315l237 -326q4 -5 2.5 -9t-6 -3.5t-8.5 4.5l-238 324l-360 -318q-4 -3 -8 -1t-4 6z" />
<glyph unicode="&#xd8;" horiz-adv-x="1466" d="M25 -41q0 6 12 18l217 209q-57 70 -89 165.5t-32 201.5q0 158 57 303t153.5 250.5t230 168t278.5 62.5q261 0 418 -170l196 191q2 2 5.5 0t3.5 -6q0 -6 -13 -19l-182 -176q133 -155 133 -385q0 -158 -57 -303t-153.5 -250.5t-230 -168t-278.5 -62.5q-136 0 -246.5 48.5 t-185.5 137.5l-229 -221q-2 -2 -5 0t-3 6zM150 553q0 -211 114 -356l993 960q-150 166 -407 166q-142 0 -271.5 -61.5t-223.5 -165.5t-149.5 -246t-55.5 -297zM274 184q72 -87 180 -134.5t242 -47.5q142 0 271.5 61.5t223.5 165.5t150 246t56 297q0 228 -129 375z" />
<glyph unicode="&#xd9;" horiz-adv-x="1253" d="M149 293q-16 106 13 254l164 770q2 10 8 10h2q8 0 6 -10l-164 -770q-59 -276 57.5 -410.5t372.5 -134.5q188 0 308.5 115.5t166.5 333.5l185 866q2 10 8 10h2q8 0 6 -10l-184 -866q-100 -463 -494 -463q-127 0 -221 32t-157 99.5t-79 173.5zM705 1669q0 6 6 6q9 0 80 -65 q72 -66 109.5 -101t45 -43.5t6.5 -9.5q-2 -2 -6.5 1t-22.5 16.5t-51 42t-92 79.5q-35 30 -52 46t-20 20t-3 8z" />
<glyph unicode="&#xda;" horiz-adv-x="1253" d="M149 293q-16 106 13 254l164 770q2 10 8 10h2q8 0 6 -10l-164 -770q-59 -276 57.5 -410.5t372.5 -134.5q188 0 308.5 115.5t166.5 333.5l185 866q2 10 8 10h2q8 0 6 -10l-184 -866q-100 -463 -494 -463q-127 0 -221 32t-157 99.5t-79 173.5zM815 1456q0 7 195 154 q87 65 94 65q4 0 4 -6q0 -5 -92 -74q-86 -63 -133 -96t-57.5 -39t-10.5 -4z" />
<glyph unicode="&#xdb;" horiz-adv-x="1253" d="M149 293q-16 106 13 254l164 770q2 10 8 10h2q8 0 6 -10l-164 -770q-59 -276 57.5 -410.5t372.5 -134.5q188 0 308.5 115.5t166.5 333.5l185 866q2 10 8 10h2q8 0 6 -10l-184 -866q-100 -463 -494 -463q-127 0 -221 32t-157 99.5t-79 173.5zM709 1458q0 5 127 139 q117 125 122 125q9 0 70 -125q68 -137 68 -139q0 -6 -6 -6t-74 135q-15 28 -25 47.5t-19 38t-16 31.5q-18 -19 -48 -52t-60 -65q-92 -98 -110 -116.5t-23 -18.5q-6 0 -6 6z" />
<glyph unicode="&#xdc;" horiz-adv-x="1253" d="M149 293q-16 106 13 254l164 770q2 10 8 10h2q8 0 6 -10l-164 -770q-59 -276 57.5 -410.5t372.5 -134.5q188 0 308.5 115.5t166.5 333.5l185 866q2 10 8 10h2q8 0 6 -10l-184 -866q-100 -463 -494 -463q-127 0 -221 32t-157 99.5t-79 173.5zM741 1479q0 13 6.5 20.5 t14.5 7.5q22 0 22 -16q0 -13 -6 -21t-14 -8q-23 0 -23 17zM1026 1479q0 13 6.5 20.5t14.5 7.5q22 0 22 -16q0 -13 -6 -21t-14 -8q-23 0 -23 17z" />
<glyph unicode="&#xdd;" horiz-adv-x="1028" d="M184 1321q9 18 21 -8l354 -695l619 707q8 5 11 -2q2 -5 -7 -16l-617 -703l-127 -596q-2 -10 -8 -10h-2q-8 0 -6 10l127 598zM649 1436q0 6 195 153q88 66 94 66q4 0 4 -6q0 -5 -92 -74q-86 -63 -133 -96t-57.5 -39t-10.5 -4z" />
<glyph unicode="&#xde;" horiz-adv-x="1093" d="M68 8l278 1309q2 10 8 10h2q8 0 6 -10l-57 -266h297q220 0 330 -88t110 -248q0 -89 -30.5 -164.5t-91 -135t-161 -93t-231.5 -33.5h-385l-59 -281q-2 -10 -8 -10h-2q-8 0 -6 10zM145 303h383q128 0 225.5 32.5t156 90t87.5 130.5t29 159q0 153 -106.5 237t-319.5 84h-297 z" />
<glyph unicode="&#xdf;" horiz-adv-x="993" d="M51 8l201 942q46 219 148.5 327.5t246.5 108.5q143 0 223 -81t80 -209q0 -162 -106.5 -251.5t-331.5 -90.5q369 -116 369 -373q0 -102 -41.5 -190.5t-125 -145.5t-192.5 -57q-159 0 -239 80q-34 34 -49 66.5t-15 47.5q0 6 4.5 8t7.5 0q15 -81 87 -134.5t206 -53.5 q103 0 182 54t118.5 139.5t39.5 185.5q-1 127 -90.5 214.5t-261.5 143.5q-18 6 -18 13q0 6 4 14q436 0 436 330q0 121 -76 198.5t-213 77.5q-138 0 -235 -104.5t-142 -317.5l-200 -942q-2 -10 -9 -10h-2q-9 0 -6 10z" />
<glyph unicode="&#xe0;" d="M102 412q0 145 64 272t180 205t256 78q91 0 168 -29.5t128 -78.5t81 -109.5t35 -126.5l65 311q5 22 15 22q6 0 6 -4l-168 -788q-10 -41 -5.5 -69.5t13 -46t25 -26.5t31 -12t30.5 -2q1 0 2 -3.5t-2 -7t-10 -3.5q-22 0 -41.5 7t-39.5 26t-24.5 52t4.5 85l21 92 q-66 -129 -174 -198.5t-240 -69.5q-186 0 -303 116t-117 308zM119 412q0 -184 112 -297t293 -113q82 0 158 32t130.5 83.5t92.5 113t51 123.5l45 211q2 102 -43 189t-139 142.5t-219 55.5q-133 0 -245 -76t-174 -199.5t-62 -264.5zM524 1311q0 6 6 6q8 0 80 -66 q58 -53 90 -82.5t48.5 -45.5t20.5 -20t3 -5q-2 -2 -6.5 1t-22.5 16.5t-51 42t-92 79.5q-36 30 -53 46t-20 20t-3 8z" />
<glyph unicode="&#xe1;" d="M102 412q0 145 64 272t180 205t256 78q91 0 168 -29.5t128 -78.5t81 -109.5t35 -126.5l65 311q5 22 15 22q6 0 6 -4l-168 -788q-10 -41 -5.5 -69.5t13 -46t25 -26.5t31 -12t30.5 -2q1 0 2 -3.5t-2 -7t-10 -3.5q-22 0 -41.5 7t-39.5 26t-24.5 52t4.5 85l21 92 q-66 -129 -174 -198.5t-240 -69.5q-186 0 -303 116t-117 308zM119 412q0 -184 112 -297t293 -113q82 0 158 32t130.5 83.5t92.5 113t51 123.5l45 211q2 102 -43 189t-139 142.5t-219 55.5q-133 0 -245 -76t-174 -199.5t-62 -264.5zM614 1098q0 6 195 153q88 66 94 66 q4 0 4 -6q0 -5 -92 -74q-86 -63 -133 -96t-57.5 -39t-10.5 -4z" />
<glyph unicode="&#xe2;" d="M102 412q0 145 64 272t180 205t256 78q91 0 168 -29.5t128 -78.5t81 -109.5t35 -126.5l65 311q5 22 15 22q6 0 6 -4l-168 -788q-10 -41 -5.5 -69.5t13 -46t25 -26.5t31 -12t30.5 -2q1 0 2 -3.5t-2 -7t-10 -3.5q-22 0 -41.5 7t-39.5 26t-24.5 52t4.5 85l21 92 q-66 -129 -174 -198.5t-240 -69.5q-186 0 -303 116t-117 308zM119 412q0 -184 112 -297t293 -113q82 0 158 32t130.5 83.5t92.5 113t51 123.5l45 211q2 102 -43 189t-139 142.5t-219 55.5q-133 0 -245 -76t-174 -199.5t-62 -264.5zM481 1100q0 5 127 139q117 125 123 125 q9 0 70 -125q67 -135 67 -139q0 -6 -6 -6t-74 135q-19 36 -36 70.5t-23 46.5q-18 -19 -48 -52t-60 -65q-48 -51 -72.5 -77t-38.5 -39.5t-17 -16t-6 -2.5q-6 0 -6 6z" />
<glyph unicode="&#xe3;" d="M102 412q0 145 64 272t180 205t256 78q91 0 168 -29.5t128 -78.5t81 -109.5t35 -126.5l65 311q5 22 15 22q6 0 6 -4l-168 -788q-10 -41 -5.5 -69.5t13 -46t25 -26.5t31 -12t30.5 -2q1 0 2 -3.5t-2 -7t-10 -3.5q-22 0 -41.5 7t-39.5 26t-24.5 52t4.5 85l21 92 q-66 -129 -174 -198.5t-240 -69.5q-186 0 -303 116t-117 308zM119 412q0 -184 112 -297t293 -113q82 0 158 32t130.5 83.5t92.5 113t51 123.5l45 211q2 102 -43 189t-139 142.5t-219 55.5q-133 0 -245 -76t-174 -199.5t-62 -264.5zM446 1102q24 84 56.5 122t75.5 38 q35 0 60.5 -20t55.5 -60q22 -28 34 -41t31.5 -24t41.5 -11q65 0 102 113q12 36 21 36q2 0 6 -4q-24 -84 -56 -121.5t-75 -37.5q-35 0 -60.5 19.5t-56.5 59.5q-22 28 -34 41t-31.5 24t-41.5 11q-65 0 -102 -112q-12 -37 -20 -37q-3 0 -7 4z" />
<glyph unicode="&#xe4;" d="M102 412q0 145 64 272t180 205t256 78q91 0 168 -29.5t128 -78.5t81 -109.5t35 -126.5l65 311q5 22 15 22q6 0 6 -4l-168 -788q-10 -41 -5.5 -69.5t13 -46t25 -26.5t31 -12t30.5 -2q1 0 2 -3.5t-2 -7t-10 -3.5q-22 0 -41.5 7t-39.5 26t-24.5 52t4.5 85l21 92 q-66 -129 -174 -198.5t-240 -69.5q-186 0 -303 116t-117 308zM119 412q0 -184 112 -297t293 -113q82 0 158 32t130.5 83.5t92.5 113t51 123.5l45 211q2 102 -43 189t-139 142.5t-219 55.5q-133 0 -245 -76t-174 -199.5t-62 -264.5zM514 1120q0 13 6.5 21t14.5 8q22 0 22 -16 q0 -13 -6 -21t-14 -8q-23 0 -23 16zM799 1120q0 13 6 21t14 8q23 0 23 -16q0 -13 -6.5 -21t-14.5 -8q-22 0 -22 16z" />
<glyph unicode="&#xe5;" d="M102 412q0 145 64 272t180 205t256 78q91 0 168 -29.5t128 -78.5t81 -109.5t35 -126.5l65 311q5 22 15 22q6 0 6 -4l-168 -788q-10 -41 -5.5 -69.5t13 -46t25 -26.5t31 -12t30.5 -2q1 0 2 -3.5t-2 -7t-10 -3.5q-22 0 -41.5 7t-39.5 26t-24.5 52t4.5 85l21 92 q-66 -129 -174 -198.5t-240 -69.5q-186 0 -303 116t-117 308zM119 412q0 -184 112 -297t293 -113q82 0 158 32t130.5 83.5t92.5 113t51 123.5l45 211q2 102 -43 189t-139 142.5t-219 55.5q-133 0 -245 -76t-174 -199.5t-62 -264.5zM526 1245q0 86 60.5 149.5t138.5 63.5 q81 0 122.5 -48t41.5 -110q0 -86 -60.5 -149.5t-138.5 -63.5q-81 0 -122.5 48t-41.5 110zM543 1245q0 -54 37 -98.5t110 -44.5q72 0 127 58t55 140q0 54 -37 99t-110 45q-72 0 -127 -58.5t-55 -140.5z" />
<glyph unicode="&#xe6;" horiz-adv-x="1751" d="M27 227q0 99 69 168q48 48 120.5 74t210.5 38.5t376 12.5h51l8 41q39 190 -52 290.5t-275 100.5q-114 0 -201.5 -42.5t-136.5 -114.5q-9 0 -9 10t33 43q119 119 316 119q174 0 272 -91t76 -268q72 162 210 260.5t306 98.5q133 0 215 -64t82 -147q0 -46 -13.5 -80.5 t-47.5 -67.5t-94 -52.5t-152 -35.5t-221.5 -17t-303.5 3q-16 -72 -16 -139q0 -164 95.5 -264.5t268.5 -100.5q119 0 216.5 50t144.5 130q10 0 10 -8q0 -19 -49 -68q-118 -118 -324 -118q-172 0 -272 98.5t-106 265.5q-44 -168 -172 -266t-293 -98q-149 0 -245.5 64.5 t-96.5 174.5zM43 227q0 -103 92.5 -164t235.5 -61q71 0 141 23t134 68.5t112 122t69 173.5l25 117h-51q-341 0 -484 -26.5t-211 -94.5q-63 -63 -63 -158zM870 520q145 -8 259 -4t199 10.5t146.5 24t101.5 36.5t63.5 47t32.5 56.5t9 65.5q0 78 -76.5 137t-205.5 59 q-188 0 -334.5 -123.5t-194.5 -308.5z" />
<glyph unicode="&#xe7;" horiz-adv-x="1017" d="M96 408q0 145 65.5 273t183 207t257.5 79q178 0 291 -113q38 -38 59 -91t21 -83q0 -15 -15 -12q-2 52 -25.5 101.5t-66 91t-111.5 66.5t-155 25q-136 0 -249.5 -77.5t-175.5 -202t-62 -264.5q0 -194 113.5 -300t291.5 -106q127 0 219.5 63.5t132.5 143.5q11 0 11 -8 q0 -10 -16 -35t-48 -57q-121 -121 -301 -121q-87 0 -162.5 27t-133.5 78t-91 132t-33 183zM284.5 -377q-1.5 3 0.5 6q13 18 34 47t65 91t73 103t28 40q1 1 4.5 0t7 -4t3.5 -8q0 -7 -11 -21l-194 -256q-2 -3 -5.5 -2t-5 4z" />
<glyph unicode="&#xe8;" horiz-adv-x="1036" d="M98 367q0 117 44.5 226.5t121 192t184.5 132t228 49.5q144 0 225.5 -63t81.5 -148q0 -41 -14 -76t-51.5 -70t-97 -59.5t-158.5 -39.5t-228 -15q-128 0 -301 18q-18 -70 -18 -147q0 -165 100.5 -265t284.5 -100q123 0 217.5 49.5t142.5 130.5q10 0 10 -8q0 -19 -49 -68 q-118 -118 -323 -118q-191 0 -295.5 104t-104.5 275zM137 528q170 -18 297 -18q155 0 264.5 21t165.5 58t79.5 77.5t23.5 89.5q0 79 -77 137.5t-216 58.5q-189 0 -337 -120.5t-200 -303.5zM512 1311q0 6 6 6q8 0 80 -66q58 -53 90 -82.5t48.5 -45.5t20.5 -20t3 -5 q-2 -2 -6.5 1t-22.5 16.5t-51 42t-92 79.5q-36 30 -53 46t-20 20t-3 8z" />
<glyph unicode="&#xe9;" horiz-adv-x="1036" d="M98 367q0 117 44.5 226.5t121 192t184.5 132t228 49.5q144 0 225.5 -63t81.5 -148q0 -41 -14 -76t-51.5 -70t-97 -59.5t-158.5 -39.5t-228 -15q-128 0 -301 18q-18 -70 -18 -147q0 -165 100.5 -265t284.5 -100q123 0 217.5 49.5t142.5 130.5q10 0 10 -8q0 -19 -49 -68 q-118 -118 -323 -118q-191 0 -295.5 104t-104.5 275zM137 528q170 -18 297 -18q155 0 264.5 21t165.5 58t79.5 77.5t23.5 89.5q0 79 -77 137.5t-216 58.5q-189 0 -337 -120.5t-200 -303.5zM623 1098q0 6 194 153q88 66 94 66q4 0 4 -6q0 -5 -92 -74q-86 -63 -132.5 -96 t-57 -39t-10.5 -4z" />
<glyph unicode="&#xea;" horiz-adv-x="1036" d="M98 367q0 117 44.5 226.5t121 192t184.5 132t228 49.5q144 0 225.5 -63t81.5 -148q0 -41 -14 -76t-51.5 -70t-97 -59.5t-158.5 -39.5t-228 -15q-128 0 -301 18q-18 -70 -18 -147q0 -165 100.5 -265t284.5 -100q123 0 217.5 49.5t142.5 130.5q10 0 10 -8q0 -19 -49 -68 q-118 -118 -323 -118q-191 0 -295.5 104t-104.5 275zM137 528q170 -18 297 -18q155 0 264.5 21t165.5 58t79.5 77.5t23.5 89.5q0 79 -77 137.5t-216 58.5q-189 0 -337 -120.5t-200 -303.5zM516 1100q0 5 127 139q117 125 123 125q9 0 70 -125q67 -135 67 -139q0 -6 -6 -6 t-74 135q-19 36 -36 70.5t-23 46.5q-19 -20 -50 -53.5t-59 -63.5q-92 -98 -110 -116.5t-23 -18.5q-6 0 -6 6z" />
<glyph unicode="&#xeb;" horiz-adv-x="1036" d="M98 367q0 117 44.5 226.5t121 192t184.5 132t228 49.5q144 0 225.5 -63t81.5 -148q0 -41 -14 -76t-51.5 -70t-97 -59.5t-158.5 -39.5t-228 -15q-128 0 -301 18q-18 -70 -18 -147q0 -165 100.5 -265t284.5 -100q123 0 217.5 49.5t142.5 130.5q10 0 10 -8q0 -19 -49 -68 q-118 -118 -323 -118q-191 0 -295.5 104t-104.5 275zM137 528q170 -18 297 -18q155 0 264.5 21t165.5 58t79.5 77.5t23.5 89.5q0 79 -77 137.5t-216 58.5q-189 0 -337 -120.5t-200 -303.5zM543 1120q0 13 6 21t14 8q23 0 23 -16q0 -13 -6.5 -21t-14.5 -8q-22 0 -22 16z M827 1120q0 13 6.5 21t14.5 8q22 0 22 -16q0 -13 -6 -21t-14 -8q-23 0 -23 16z" />
<glyph unicode="&#xec;" horiz-adv-x="335" d="M89.5 79q-4.5 33 4.5 85l166 782q2 10 8 10h2q8 0 6 -10l-165 -782q-10 -41 -5.5 -69.5t13 -46t25 -26.5t31 -12t30.5 -2q1 0 2 -3.5t-2 -7t-10 -3.5q-22 0 -41.5 7t-39.5 26t-24.5 52zM102 1311q0 6 7 6t79 -66q58 -53 90 -82.5t48.5 -45.5t20.5 -20t3 -5q-2 -2 -6.5 1 t-22.5 16.5t-51 42t-92 79.5q-36 30 -53 46t-20 20t-3 8z" />
<glyph unicode="&#xed;" horiz-adv-x="335" d="M89.5 79q-4.5 33 4.5 85l166 782q2 10 8 10h2q8 0 6 -10l-165 -782q-10 -41 -5.5 -69.5t13 -46t25 -26.5t31 -12t30.5 -2q1 0 2 -3.5t-2 -7t-10 -3.5q-22 0 -41.5 7t-39.5 26t-24.5 52zM268 1098q0 6 195 153q88 66 94 66q4 0 4 -6q0 -5 -92 -74q-86 -63 -133 -96 t-57.5 -39t-10.5 -4z" />
<glyph unicode="&#xee;" horiz-adv-x="335" d="M89.5 79q-4.5 33 4.5 85l166 782q2 10 8 10h2q8 0 6 -10l-165 -782q-10 -41 -5.5 -69.5t13 -46t25 -26.5t31 -12t30.5 -2q1 0 2 -3.5t-2 -7t-10 -3.5q-22 0 -41.5 7t-39.5 26t-24.5 52zM131 1100q0 5 127 139q117 125 123 125q9 0 70 -125q67 -135 67 -139q0 -6 -6 -6 t-74 135q-19 36 -36 70.5t-23 46.5q-19 -20 -50 -53.5t-59 -63.5q-92 -98 -110 -116.5t-23 -18.5q-6 0 -6 6z" />
<glyph unicode="&#xef;" horiz-adv-x="335" d="M89.5 79q-4.5 33 4.5 85l166 782q2 10 8 10h2q8 0 6 -10l-165 -782q-10 -41 -5.5 -69.5t13 -46t25 -26.5t31 -12t30.5 -2q1 0 2 -3.5t-2 -7t-10 -3.5q-22 0 -41.5 7t-39.5 26t-24.5 52zM164 1120q0 13 6 21t14 8q23 0 23 -16q0 -13 -6.5 -21t-14.5 -8q-22 0 -22 16z M449 1120q0 13 6 21t14 8q23 0 23 -16q0 -13 -6.5 -21t-14.5 -8q-22 0 -22 16z" />
<glyph unicode="&#xf0;" horiz-adv-x="1073" d="M68 360q0 207 130 341.5t341 134.5q78 0 154 -26.5t133 -67.5t98.5 -88.5t60.5 -92.5q8 57 8 125q0 304 -221 512l-336 -174q-4 0 -4 8q0 7 29 21l301 155q-93 84 -209.5 123t-202.5 41q-1 1 -0.5 4t4 6.5t8.5 3.5q73 0 192.5 -41t221.5 -131l316 162q4 0 4 -8 q0 -6 -29 -20l-281 -144q224 -211 224 -518q0 -94 -17.5 -188.5t-58.5 -187t-101 -163.5t-152 -115t-204 -44q-175 0 -292 101.5t-117 270.5zM84 360q0 -164 112 -261t283 -97q91 0 168.5 31t132.5 82.5t97.5 121.5t67 143t36.5 152q-37 105 -162 197t-282 92 q-203 0 -328 -130t-125 -331z" />
<glyph unicode="&#xf1;" horiz-adv-x="1087" d="M51 8l201 944q0 4 6 4q9 0 6 -24l-53 -250q170 285 446 285q138 0 223 -80.5t85 -222.5q0 -56 -12.5 -123.5t-45.5 -210.5q-41 -171 -41 -228q0 -52 29.5 -74t71.5 -20q1 0 1.5 -3.5t-2.5 -7t-10 -3.5q-44 0 -75 26.5t-31 81.5q0 57 41 228q57 248 57 334q0 136 -80 212 t-213 76q-80 0 -149.5 -24t-124.5 -68.5t-97 -96.5t-81 -120l-135 -635q-2 -10 -9 -10h-2q-9 0 -6 10zM449 1102q24 84 56 122t75 38q35 0 60.5 -20t55.5 -60q22 -28 34 -41t31.5 -24t41.5 -11q65 0 102 113q12 36 21 36q2 0 6 -4q-24 -84 -56 -121.5t-75 -37.5 q-35 0 -60.5 19.5t-56.5 59.5q-22 29 -33.5 41.5t-31 23.5t-41.5 11q-32 0 -59 -29.5t-44 -82.5q-12 -37 -20 -37q-2 0 -6 4z" />
<glyph unicode="&#xf2;" horiz-adv-x="1146" d="M98 412q0 117 44 222t116.5 177t167 114t192.5 42q192 0 311.5 -121t119.5 -303q0 -117 -44.5 -222t-117 -177t-167 -114t-192.5 -42q-192 0 -311 121t-119 303zM115 412q0 -175 114 -292.5t301 -117.5q95 0 185.5 41.5t160.5 112t113 172.5t43 215q0 175 -114 292 t-302 117q-95 0 -185.5 -41t-160.5 -111.5t-112.5 -172.5t-42.5 -215zM465 1311q0 6 6 6q8 0 80 -66q58 -53 90 -82.5t48.5 -45.5t20.5 -20t3 -5q-2 -2 -6.5 1t-22.5 16.5t-51 42t-92 79.5q-36 30 -53 46t-20 20t-3 8z" />
<glyph unicode="&#xf3;" horiz-adv-x="1146" d="M98 412q0 117 44 222t116.5 177t167 114t192.5 42q192 0 311.5 -121t119.5 -303q0 -117 -44.5 -222t-117 -177t-167 -114t-192.5 -42q-192 0 -311 121t-119 303zM115 412q0 -175 114 -292.5t301 -117.5q95 0 185.5 41.5t160.5 112t113 172.5t43 215q0 175 -114 292 t-302 117q-95 0 -185.5 -41t-160.5 -111.5t-112.5 -172.5t-42.5 -215zM596 1098q0 6 195 153q88 66 94 66q4 0 4 -6q0 -5 -92 -74q-86 -63 -133 -96t-57.5 -39t-10.5 -4z" />
<glyph unicode="&#xf4;" horiz-adv-x="1146" d="M98 412q0 117 44 222t116.5 177t167 114t192.5 42q192 0 311.5 -121t119.5 -303q0 -117 -44.5 -222t-117 -177t-167 -114t-192.5 -42q-192 0 -311 121t-119 303zM115 412q0 -175 114 -292.5t301 -117.5q95 0 185.5 41.5t160.5 112t113 172.5t43 215q0 175 -114 292 t-302 117q-95 0 -185.5 -41t-160.5 -111.5t-112.5 -172.5t-42.5 -215zM494 1100q0 5 127 139q117 125 122 125q9 0 70 -125q68 -137 68 -139q0 -6 -7 -6q-5 0 -73 135l-60 117q-18 -19 -48 -52t-60 -65q-92 -98 -110 -116.5t-23 -18.5q-6 0 -6 6z" />
<glyph unicode="&#xf5;" horiz-adv-x="1146" d="M98 412q0 117 44 222t116.5 177t167 114t192.5 42q192 0 311.5 -121t119.5 -303q0 -117 -44.5 -222t-117 -177t-167 -114t-192.5 -42q-192 0 -311 121t-119 303zM115 412q0 -175 114 -292.5t301 -117.5q95 0 185.5 41.5t160.5 112t113 172.5t43 215q0 175 -114 292 t-302 117q-95 0 -185.5 -41t-160.5 -111.5t-112.5 -172.5t-42.5 -215zM459 1102q24 84 56 122t75 38q35 0 61 -20.5t56 -59.5q22 -29 33.5 -41.5t31 -23.5t41.5 -11q65 0 102 113q12 36 21 36q2 0 6 -4q-24 -84 -56 -121.5t-75 -37.5q-35 0 -60.5 19.5t-56.5 59.5 q-22 29 -33.5 41.5t-31 23.5t-41.5 11q-32 0 -59 -29.5t-44 -82.5q-12 -37 -20 -37q-2 0 -6 4z" />
<glyph unicode="&#xf6;" horiz-adv-x="1146" d="M98 412q0 117 44 222t116.5 177t167 114t192.5 42q192 0 311.5 -121t119.5 -303q0 -117 -44.5 -222t-117 -177t-167 -114t-192.5 -42q-192 0 -311 121t-119 303zM115 412q0 -175 114 -292.5t301 -117.5q95 0 185.5 41.5t160.5 112t113 172.5t43 215q0 175 -114 292 t-302 117q-95 0 -185.5 -41t-160.5 -111.5t-112.5 -172.5t-42.5 -215zM526 1122q0 13 6.5 21t14.5 8q22 0 22 -16q0 -13 -6 -21t-14 -8q-23 0 -23 16zM811 1122q0 13 6 21t14 8q23 0 23 -16q0 -13 -6 -21t-14 -8q-23 0 -23 16z" />
<glyph unicode="&#xf8;" horiz-adv-x="1146" d="M12 -20q0 5 13 18l161 145q-88 111 -88 269q0 117 44 222t116.5 177t167 114t192.5 42q104 0 189.5 -38.5t142.5 -107.5l174 156q2 2 5.5 0t3.5 -6q0 -6 -13 -19l-159 -143q88 -111 88 -266q0 -117 -44.5 -222t-117 -177t-167 -114t-192.5 -42q-208 0 -331 143l-177 -158 q-1 -1 -3 -0.5t-3.5 2.5t-1.5 5zM115 412q0 -147 84 -258l739 657q-115 141 -322 141q-95 0 -185.5 -41t-160.5 -111.5t-112.5 -172.5t-42.5 -215zM209 141q116 -139 321 -139q95 0 185.5 41.5t160.5 112t113 172.5t43 215q0 149 -84 256z" />
<glyph unicode="&#xf9;" horiz-adv-x="1087" d="M130 244.5q-15 89.5 9 216.5l105 485q2 10 8 10h2q8 0 6 -10l-104 -485q-24 -124 -10.5 -211t63 -142t114.5 -80.5t144 -25.5q256 0 410 270l143 674q2 10 8 10h2q8 0 6 -10l-166 -782q-8 -52 -4 -83.5t23 -47.5t37 -21t39 -4q1 0 1.5 -3.5t-2.5 -7t-10 -3.5 q-22 0 -41.5 7t-39 26t-24 52t4.5 85l16 74q-151 -250 -405 -250q-82 0 -150 26.5t-119 83.5t-66 146.5zM520 1290q0 6 6 6q9 0 80 -65q73 -67 109.5 -101t45 -43t7.5 -10q-2 -2 -6.5 0.5t-23 17.5t-50 42t-92.5 80q-36 31 -52.5 46t-20 19.5t-3.5 7.5z" />
<glyph unicode="&#xfa;" horiz-adv-x="1087" d="M130 244.5q-15 89.5 9 216.5l105 485q2 10 8 10h2q8 0 6 -10l-104 -485q-24 -124 -10.5 -211t63 -142t114.5 -80.5t144 -25.5q256 0 410 270l143 674q2 10 8 10h2q8 0 6 -10l-166 -782q-8 -52 -4 -83.5t23 -47.5t37 -21t39 -4q1 0 1.5 -3.5t-2.5 -7t-10 -3.5 q-22 0 -41.5 7t-39 26t-24 52t4.5 85l16 74q-151 -250 -405 -250q-82 0 -150 26.5t-119 83.5t-66 146.5zM621 1077q0 7 194 154q87 65 94 65q4 0 4 -6q0 -4 -92 -73q-88 -64 -133.5 -96.5t-56 -39t-10.5 -4.5z" />
<glyph unicode="&#xfb;" horiz-adv-x="1087" d="M130 244.5q-15 89.5 9 216.5l105 485q2 10 8 10h2q8 0 6 -10l-104 -485q-24 -124 -10.5 -211t63 -142t114.5 -80.5t144 -25.5q256 0 410 270l143 674q2 10 8 10h2q8 0 6 -10l-166 -782q-8 -52 -4 -83.5t23 -47.5t37 -21t39 -4q1 0 1.5 -3.5t-2.5 -7t-10 -3.5 q-22 0 -41.5 7t-39 26t-24 52t4.5 85l16 74q-151 -250 -405 -250q-82 0 -150 26.5t-119 83.5t-66 146.5zM535 1079q0 6 127 140q116 124 122 124q10 0 70 -124q68 -137 68 -140q0 -6 -7 -6q-5 0 -73 135l-60 117q-18 -19 -48 -52t-60 -65q-92 -98 -110 -116.5t-23 -18.5 q-6 0 -6 6z" />
<glyph unicode="&#xfc;" horiz-adv-x="1087" d="M130 244.5q-15 89.5 9 216.5l105 485q2 10 8 10h2q8 0 6 -10l-104 -485q-24 -124 -10.5 -211t63 -142t114.5 -80.5t144 -25.5q256 0 410 270l143 674q2 10 8 10h2q8 0 6 -10l-166 -782q-8 -52 -4 -83.5t23 -47.5t37 -21t39 -4q1 0 1.5 -3.5t-2.5 -7t-10 -3.5 q-22 0 -41.5 7t-39 26t-24 52t4.5 85l16 74q-151 -250 -405 -250q-82 0 -150 26.5t-119 83.5t-66 146.5zM567 1100q0 13 6.5 20.5t14.5 7.5q22 0 22 -16q0 -13 -6 -21t-14 -8q-23 0 -23 17zM852 1100q0 13 6 20.5t14 7.5q23 0 23 -16q0 -13 -6.5 -21t-14.5 -8q-22 0 -22 17z " />
<glyph unicode="&#xfd;" horiz-adv-x="872" d="M-168 -332q0 8 8 8q36 -49 103 -49q53 0 96.5 30.5t93.5 106.5l197 299q-7 0 -11 13l-135 688q-22 106 -56 145t-87 37q-1 0 -2.5 4t1.5 7.5t11 3.5q49 0 82 -33q46 -46 68 -162l135 -694l582 882q5 2 8.5 -3.5t-0.5 -12.5l-779 -1180q-56 -86 -100 -115.5t-104 -29.5 q-64 0 -105 41q-6 6 -6 14zM479 1057q0 6 195 153q88 66 94 66q4 0 4 -6q0 -5 -92 -74q-86 -63 -133 -96t-57.5 -39t-10.5 -4z" />
<glyph unicode="&#xfe;" d="M-33 -387l373 1753q2 10 8 10h2q8 0 6 -10l-143 -668q59 120 168.5 194.5t247.5 74.5q186 0 303 -116t117 -308q0 -145 -64 -272t-180 -205t-256 -78q-91 0 -168.5 29.5t-128.5 78.5t-81.5 109.5t-35.5 126.5l-151 -719q-2 -10 -9 -10h-2q-9 0 -6 10zM150 333 q7 -50 24 -97.5t53.5 -90t81.5 -74.5t108 -50.5t134 -18.5q100 0 190 45t153.5 119.5t100.5 173t37 203.5q0 184 -112 296.5t-293 112.5q-152 0 -262.5 -90t-161.5 -221l-47 -211q-13 -47 -6 -97z" />
<glyph unicode="&#xff;" horiz-adv-x="872" d="M-168 -332q0 8 8 8q36 -49 103 -49q53 0 96.5 30.5t93.5 106.5l197 299q-7 0 -11 13l-135 688q-22 106 -56 145t-87 37q-1 0 -2.5 4t1.5 7.5t11 3.5q49 0 82 -33q46 -46 68 -162l135 -694l582 882q5 2 8.5 -3.5t-0.5 -12.5l-779 -1180q-56 -86 -100 -115.5t-104 -29.5 q-64 0 -105 41q-6 6 -6 14zM389 1120q0 13 6.5 21t14.5 8q22 0 22 -16q0 -13 -6 -21t-14 -8q-23 0 -23 16zM674 1120q0 13 6 21t14 8q23 0 23 -16q0 -13 -6.5 -21t-14.5 -8q-22 0 -22 16z" />
<glyph unicode="&#x152;" horiz-adv-x="2017" d="M133 555q0 158 57 302t152 247t224 164t268 61q23 0 73 -4h1166q10 0 10 -4t-4 -8q-2 -2 -13 -2h-1079q184 -46 288.5 -191t104.5 -350q0 -28 -4 -82h420q10 0 10 -4t-4 -8q-2 -2 -12 -2h-416q-28 -244 -179.5 -426.5t-365.5 -233.5h1026q11 0 11 -4t-4 -8q-2 -2 -13 -2 h-1097q-50 -4 -72 -4q-247 0 -397 155.5t-150 403.5zM150 555q0 -241 145 -393t387 -152q138 0 264.5 61t217.5 163.5t145.5 242.5t54.5 293q0 241 -145.5 393t-387.5 152q-184 0 -341 -103t-248.5 -278t-91.5 -379z" />
<glyph unicode="&#x153;" horiz-adv-x="1904" d="M98 397q0 163 69.5 294t188 203.5t260.5 72.5q173 0 288 -118.5t114 -297.5q52 177 201.5 296.5t334.5 119.5q133 0 215 -64t82 -147q0 -260 -548 -260q-111 0 -281 16q-18 -71 -18 -145q0 -164 95.5 -264.5t268.5 -100.5q119 0 216.5 50t144.5 130q10 0 10 -8 q0 -19 -49 -68q-118 -118 -324 -118q-176 0 -276.5 102t-102.5 272q-49 -168 -181.5 -271t-295.5 -103q-179 0 -295.5 116.5t-116.5 292.5zM115 397q0 -169 110 -282t287 -113q98 0 187.5 42t156 114.5t106 176.5t39.5 222q0 168 -108.5 281.5t-278.5 113.5q-136 0 -250 -71 t-181.5 -198.5t-67.5 -285.5zM1026 526q166 -16 277 -16q125 0 221 14.5t153.5 37.5t94 56t50 66.5t13.5 71.5q0 78 -77 137t-206 59q-185 0 -330 -121.5t-196 -304.5z" />
<glyph unicode="&#x178;" horiz-adv-x="1028" d="M184 1321q9 18 21 -8l354 -695l619 707q8 5 11 -2q2 -5 -7 -16l-617 -703l-127 -596q-2 -10 -8 -10h-2q-8 0 -6 10l127 598zM526 1479q0 13 6.5 20.5t14.5 7.5q22 0 22 -16q0 -13 -6 -21t-14 -8q-23 0 -23 17zM811 1479q0 13 6 20.5t14 7.5q23 0 23 -16q0 -13 -6 -21 t-14 -8q-23 0 -23 17z" />
<glyph unicode="&#x2c6;" horiz-adv-x="1024" d="M453 1100q0 5 127 139q117 125 122 125q9 0 70 -125q68 -137 68 -139q0 -6 -6 -6t-74 135l-60 117q-18 -19 -48 -52t-60 -65q-92 -98 -110 -116.5t-23 -18.5q-6 0 -6 6z" />
<glyph unicode="&#x2dc;" horiz-adv-x="1019" d="M416 1102q24 84 56 122t75 38q35 0 61 -20.5t56 -59.5q22 -29 33.5 -41.5t31 -23.5t41.5 -11q65 0 102 113q12 36 21 36q2 0 6 -4q-24 -84 -56 -121.5t-75 -37.5q-35 0 -60.5 19.5t-56.5 59.5q-22 29 -33.5 41.5t-31 23.5t-41.5 11q-32 0 -59 -29.5t-44 -82.5 q-12 -37 -20 -37q-2 0 -6 4z" />
<glyph unicode="&#x2000;" horiz-adv-x="871" />
<glyph unicode="&#x2001;" horiz-adv-x="1743" />
<glyph unicode="&#x2002;" horiz-adv-x="871" />
<glyph unicode="&#x2003;" horiz-adv-x="1743" />
<glyph unicode="&#x2004;" horiz-adv-x="581" />
<glyph unicode="&#x2005;" horiz-adv-x="435" />
<glyph unicode="&#x2006;" horiz-adv-x="290" />
<glyph unicode="&#x2007;" horiz-adv-x="290" />
<glyph unicode="&#x2008;" horiz-adv-x="217" />
<glyph unicode="&#x2009;" horiz-adv-x="348" />
<glyph unicode="&#x200a;" horiz-adv-x="96" />
<glyph unicode="&#x2010;" horiz-adv-x="647" d="M84 535q0 4 4 8q2 2 12 2h478q10 0 10 -4q0 -5 -4 -9q-2 -2 -13 -2h-477q-10 0 -10 5z" />
<glyph unicode="&#x2011;" horiz-adv-x="647" d="M84 535q0 4 4 8q2 2 12 2h478q10 0 10 -4q0 -5 -4 -9q-2 -2 -13 -2h-477q-10 0 -10 5z" />
<glyph unicode="&#x2012;" horiz-adv-x="647" d="M84 535q0 4 4 8q2 2 12 2h478q10 0 10 -4q0 -5 -4 -9q-2 -2 -13 -2h-477q-10 0 -10 5z" />
<glyph unicode="&#x2013;" horiz-adv-x="913" d="M84 535q0 4 4 8q2 2 12 2h744q10 0 10 -4q0 -5 -4 -9q-2 -2 -12 -2h-744q-10 0 -10 5z" />
<glyph unicode="&#x2014;" horiz-adv-x="1224" d="M84 535q0 4 4 8q2 2 12 2h1055q10 0 10 -4q0 -5 -4 -9q-2 -2 -12 -2h-1055q-10 0 -10 5z" />
<glyph unicode="&#x2018;" horiz-adv-x="342" d="M203 971q0 2 10 22l188 332q2 3 5.5 2.5t5.5 -3.5t0 -7q-12 -23 -32.5 -60t-63.5 -115t-71.5 -130t-27.5 -51q-1 -1 -4.5 -0.5t-6.5 3t-3 7.5z" />
<glyph unicode="&#x2019;" horiz-adv-x="342" d="M210.5 965q-1.5 3 0.5 6q12 23 32.5 60t63.5 115t71.5 130t27.5 51q1 1 4.5 0.5t6.5 -3t3 -7.5q0 -8 -10 -23l-189 -331q-2 -3 -5.5 -2t-5 4z" />
<glyph unicode="&#x201a;" horiz-adv-x="307" d="M-123.5 -299q-1.5 3 0.5 6q12 23 32.5 60t63.5 115t71.5 130t27.5 51q1 1 4.5 0.5t6.5 -3t3 -7.5q0 -7 -10 -22l-189 -332q-2 -3 -5.5 -2t-5 4z" />
<glyph unicode="&#x201c;" horiz-adv-x="557" d="M203 973q0 2 10 22l188 332q2 3 5.5 2.5t5.5 -3.5t0 -7q-12 -23 -32.5 -60t-63.5 -115t-71.5 -130t-27.5 -51q-1 -1 -4.5 -0.5t-6.5 3t-3 7.5zM418 971q0 2 10 22l188 332q2 3 5.5 2.5t5.5 -3.5t0 -7q-12 -23 -32.5 -60t-63.5 -115t-71.5 -130t-27.5 -51q-1 -1 -4.5 -0.5 t-6.5 3t-3 7.5z" />
<glyph unicode="&#x201d;" horiz-adv-x="557" d="M210.5 965q-1.5 3 0.5 6q12 23 32.5 60t63.5 115t71.5 130t27.5 51q1 1 4.5 0.5t6.5 -3t3 -7.5q0 -8 -10 -23l-189 -331q-2 -3 -5.5 -2t-5 4zM425.5 963q-1.5 3 0.5 6q12 23 32.5 60t63.5 115t71.5 130t27.5 51q1 1 4.5 0.5t6.5 -3t3 -7.5q0 -8 -10 -23l-189 -331 q-2 -3 -5.5 -2t-5 4z" />
<glyph unicode="&#x201e;" horiz-adv-x="522" d="M-123.5 -299q-1.5 3 0.5 6q12 23 32.5 60t63.5 115t71.5 130t27.5 51q1 1 4.5 0.5t6.5 -3t3 -7.5q0 -7 -10 -22l-189 -332q-2 -3 -5.5 -2t-5 4zM91.5 -301q-1.5 3 0.5 6q12 23 32.5 60t63.5 115t71.5 130t27.5 51q1 1 4.5 0.5t6.5 -3t3 -7.5q0 -7 -10 -22l-189 -332 q-2 -3 -5.5 -2t-5 4z" />
<glyph unicode="&#x2022;" horiz-adv-x="499" d="M158 537q0 44 30 75t74 31t74.5 -31t30.5 -75t-30.5 -75.5t-74.5 -31.5t-74 31t-30 76z" />
<glyph unicode="&#x2026;" horiz-adv-x="921" d="M31 16q0 17 10 27q6 6 16 6q25 0 25 -20q0 -17 -10 -27q-6 -6 -17 -6q-24 0 -24 20zM338 16q0 17 10 27q6 6 17 6q24 0 24 -20q0 -17 -10 -27q-6 -6 -17 -6q-24 0 -24 20zM645 16q0 17 10 27q6 6 17 6q24 0 24 -20q0 -17 -10 -27q-6 -6 -16 -6q-25 0 -25 20z" />
<glyph unicode="&#x202f;" horiz-adv-x="348" />
<glyph unicode="&#x2039;" horiz-adv-x="571" d="M84 489q0 3 223 154q209 141 215 141t6 -6q0 -5 -211 -145q-51 -34 -117 -79t-96 -65q128 -122 152 -145q147 -139 147 -143q0 -6 -6 -6t-151 139q-35 33 -66.5 63t-47.5 44.5t-28 26t-16 15.5t-4 6z" />
<glyph unicode="&#x203a;" horiz-adv-x="571" d="M47 201q0 5 211 145q12 8 213 143q-17 16 -43.5 42t-52.5 51t-56 53q-147 139 -147 143q0 6 6 6q7 0 152 -139q26 -24 50 -47.5t39.5 -37.5t29 -27t21 -20t13 -12.5t7.5 -8t2 -3.5t-224 -153q-209 -141 -215 -141t-6 6z" />
<glyph unicode="&#x205f;" horiz-adv-x="435" />
<glyph unicode="&#x20ac;" horiz-adv-x="1251" d="M80 502q0 4 4 8q2 2 12 2h1h1h1h1h1h1h1h1h1h1h1h1h1h1h1h1h1h1h1h1h1h1h1h1h1h1h1h1h1h1h1h1h1h1h1h1h1h1h1h2h1h1h1h1h1h1h2h1h1h1h1h2h1h1h1h1h2h1h1h2h1h1h2h1h1h2h1h1h2h1h1h2h1h2h1h1h2h1h2h1h2h1h2h1h2h1h2h1h2h1h2h1h2h1h2h2h1h2h1h2h2h1h2h2h1h2h1h2h2h2h1h2h2 h1h2h2h1h2h2h2h1h2h2h2h2h1h2h2h2h2h1h2h2h2h2h2h2h1h2h2h10q13 168 57 311h-196q-10 0 -10 4q0 5 4 9q2 2 12 2h194q69 222 197 350q75 75 160.5 112t195.5 37q171 0 279 -108q31 -31 51.5 -76.5t20.5 -69.5q0 -5 -3.5 -7t-7.5 -1q-9 45 -32.5 86t-63.5 79t-103.5 60.5 t-142.5 22.5q-197 0 -344 -147q-120 -120 -190 -338h547q10 0 10 -4q0 -5 -4 -9q-2 -2 -12 -2h-545q-48 -159 -56 -311h537q10 0 10 -4t-4 -8q-2 -2 -12 -2h-533v-33q0 -224 111.5 -343.5t294.5 -119.5q126 0 225.5 68t132.5 149q4 1 7.5 -1t3.5 -7q0 -11 -19.5 -41 t-50.5 -61q-54 -54 -133.5 -87.5t-167.5 -33.5q-189 0 -304.5 123t-115.5 354v33h-209q-10 0 -10 4z" />
<glyph unicode="&#x2122;" horiz-adv-x="1220" d="M123 1317v2q0 6 8 6h475q8 0 8 -6v-2q0 -6 -8 -6h-229v-598q0 -11 -6 -11h-4q-7 0 -7 11v598h-229q-8 0 -8 6zM709 713v602q0 12 10 12h2q9 0 16 -12l242 -404l242 404q7 12 16 12h2q10 0 10 -12v-602q0 -11 -6 -11h-4q-6 0 -6 11v594l-240 -404q-7 -10 -14 -10t-14 10 l-240 404v-594q0 -11 -6 -11h-4q-6 0 -6 11z" />
<glyph unicode="&#xe000;" horiz-adv-x="952" d="M0 0v952h952v-952h-952z" />
</font>
</defs>
</svg>
